# MagicaVoxel @ Ephtracy

# group
o 

# material
mtllib jagal.mtl
usemtl palette

# normals
vn -1 0 0
vn 1 0 0
vn 0 0 1
vn 0 0 -1
vn 0 -1 0
vn 0 1 0

# texcoords
vt 0.369141 0.5
vt 0.556641 0.5
vt 0.560547 0.5

# verts
v -0.5 0 0.5
v -0.5 0 0.4
v -0.5 0 0.3
v -0.5 0 0.2
v -0.5 0 0.1
v -0.5 0 -0.4
v -0.5 0 -0.5
v -0.5 0.1 0.5
v -0.5 0.1 0.4
v -0.5 0.1 0.3
v -0.5 0.1 0.2
v -0.5 0.1 0.1
v -0.5 0.1 -0.2
v -0.5 0.1 -0.3
v -0.5 0.1 -0.4
v -0.5 0.1 -0.5
v -0.5 0.2 -0.4
v -0.5 0.2 -0.5
v -0.5 0.3 0.1
v -0.5 0.3 0
v -0.5 0.3 -0.2
v -0.5 0.3 -0.3
v -0.5 0.3 -0.4
v -0.5 0.3 -0.5
v -0.5 0.4 0.5
v -0.5 0.4 0.4
v -0.5 0.4 0.1
v -0.5 0.4 0
v -0.5 0.4 -0.2
v -0.5 0.4 -0.3
v -0.5 0.4 -0.4
v -0.5 0.4 -0.5
v -0.5 0.5 0.3
v -0.5 0.5 0.2
v -0.5 0.6 0.5
v -0.5 0.6 0.4
v -0.5 0.6 0.3
v -0.5 0.6 0.2
v -0.5 0.6 0.1
v -0.5 0.6 -0.1
v -0.5 0.6 -0.2
v -0.5 0.6 -0.3
v -0.5 0.7 0.4
v -0.5 0.7 0.1
v -0.5 0.7 -0.1
v -0.5 0.7 -0.2
v -0.5 0.7 -0.3
v -0.5 0.7 -0.4
v -0.5 0.7 -0.5
v -0.5 1 0.5
v -0.5 1 -0.5
v 0.5 0 0.5
v 0.5 0 0.4
v 0.5 0 -0.4
v 0.5 0 -0.5
v 0.5 0.1 0.5
v 0.5 0.1 0.4
v 0.5 0.1 0.3
v 0.5 0.1 0.2
v 0.5 0.1 0.1
v 0.5 0.1 -0.1
v 0.5 0.1 -0.3
v 0.5 0.1 -0.4
v 0.5 0.1 -0.5
v 0.5 0.2 0.5
v 0.5 0.2 0.4
v 0.5 0.2 0.3
v 0.5 0.2 0.2
v 0.5 0.2 -0.3
v 0.5 0.2 -0.4
v 0.5 0.3 0.3
v 0.5 0.3 0.1
v 0.5 0.3 -0.1
v 0.5 0.3 -0.2
v 0.5 0.3 -0.3
v 0.5 0.3 -0.5
v 0.5 0.4 0.5
v 0.5 0.4 0.4
v 0.5 0.4 0.3
v 0.5 0.4 0.2
v 0.5 0.4 0.1
v 0.5 0.4 -0.1
v 0.5 0.4 -0.2
v 0.5 0.4 -0.3
v 0.5 0.5 0.4
v 0.5 0.5 0.3
v 0.5 0.5 0
v 0.5 0.5 -0.1
v 0.5 0.6 0.5
v 0.5 0.6 0.2
v 0.5 0.6 0
v 0.5 0.6 -0.3
v 0.5 0.6 -0.5
v 0.5 1 0.5
v 0.5 1 -0.5
v -0.5 0 0.5
v -0.5 0.1 0.5
v -0.5 0.4 0.5
v -0.5 0.6 0.5
v -0.5 1 0.5
v -0.4 0.2 0.5
v -0.4 0.4 0.5
v -0.4 0.5 0.5
v -0.4 0.6 0.5
v -0.4 0.7 0.5
v -0.3 0 0.5
v -0.3 0.1 0.5
v -0.3 0.6 0.5
v -0.3 0.7 0.5
v -0.2 0 0.5
v -0.2 0.1 0.5
v -0.2 0.2 0.5
v -0.2 0.3 0.5
v -0.2 0.5 0.5
v -0.1 0.2 0.5
v -0.1 0.3 0.5
v -0.1 0.5 0.5
v -0.1 0.6 0.5
v -0.1 0.7 0.5
v 0 0.2 0.5
v 0 0.3 0.5
v 0 0.5 0.5
v 0 0.6 0.5
v 0 0.7 0.5
v 0.1 0 0.5
v 0.1 0.2 0.5
v 0.1 0.3 0.5
v 0.1 0.5 0.5
v 0.1 0.6 0.5
v 0.1 0.7 0.5
v 0.2 0.3 0.5
v 0.2 0.5 0.5
v 0.2 0.6 0.5
v 0.4 0.1 0.5
v 0.4 0.2 0.5
v 0.4 0.3 0.5
v 0.4 0.4 0.5
v 0.4 0.6 0.5
v 0.4 0.7 0.5
v 0.5 0 0.5
v 0.5 0.1 0.5
v 0.5 0.2 0.5
v 0.5 0.4 0.5
v 0.5 0.6 0.5
v 0.5 1 0.5
v -0.5 0 -0.5
v -0.5 0.1 -0.5
v -0.5 0.2 -0.5
v -0.5 0.3 -0.5
v -0.5 0.4 -0.5
v -0.5 0.7 -0.5
v -0.5 1 -0.5
v -0.4 0 -0.5
v -0.4 0.1 -0.5
v -0.4 0.2 -0.5
v -0.4 0.3 -0.5
v -0.4 0.4 -0.5
v -0.2 0.2 -0.5
v -0.2 0.3 -0.5
v -0.2 0.4 -0.5
v -0.2 0.7 -0.5
v -0.1 0.1 -0.5
v -0.1 0.2 -0.5
v -0.1 0.3 -0.5
v -0.1 0.4 -0.5
v 0 0.3 -0.5
v 0 0.4 -0.5
v 0 0.5 -0.5
v 0 0.6 -0.5
v 0 0.7 -0.5
v 0.2 0.1 -0.5
v 0.2 0.3 -0.5
v 0.2 0.5 -0.5
v 0.2 0.6 -0.5
v 0.3 0 -0.5
v 0.3 0.1 -0.5
v 0.3 0.2 -0.5
v 0.4 0.1 -0.5
v 0.4 0.2 -0.5
v 0.4 0.3 -0.5
v 0.4 0.6 -0.5
v 0.5 0 -0.5
v 0.5 0.1 -0.5
v 0.5 0.3 -0.5
v 0.5 0.6 -0.5
v 0.5 1 -0.5
v -0.5 0 0.5
v -0.3 0 0.5
v -0.2 0 0.5
v 0.1 0 0.5
v 0.5 0 0.5
v -0.5 0 0.4
v -0.4 0 0.4
v -0.3 0 0.4
v -0.2 0 0.4
v 0.1 0 0.4
v 0.5 0 0.4
v -0.5 0 0.3
v -0.4 0 0.3
v -0.5 0 0.2
v -0.4 0 0.2
v -0.5 0 0.1
v -0.4 0 0.1
v -0.5 0 -0.4
v -0.4 0 -0.4
v 0.3 0 -0.4
v 0.5 0 -0.4
v -0.5 0 -0.5
v -0.4 0 -0.5
v 0.3 0 -0.5
v 0.5 0 -0.5
v -0.5 1 0.5
v 0.5 1 0.5
v -0.5 1 -0.5
v 0.5 1 -0.5

# faces
f 8/1/1 2/1/1 1/1/1
f 9/3/1 3/3/1 2/3/1
f 9/1/1 2/1/1 8/1/1
f 10/1/1 4/1/1 3/1/1
f 10/3/1 3/3/1 9/3/1
f 11/3/1 5/3/1 4/3/1
f 11/1/1 4/1/1 10/1/1
f 12/1/1 6/1/1 5/1/1
f 12/3/1 5/3/1 11/3/1
f 13/1/1 6/1/1 12/1/1
f 14/1/1 6/1/1 13/1/1
f 15/3/1 7/3/1 6/3/1
f 15/1/1 6/1/1 14/1/1
f 16/3/1 7/3/1 15/3/1
f 17/3/1 15/3/1 14/3/1
f 17/2/1 16/2/1 15/2/1
f 18/2/1 16/2/1 17/2/1
f 19/1/1 10/1/1 9/1/1
f 19/1/1 11/1/1 10/1/1
f 19/1/1 12/1/1 11/1/1
f 19/2/1 13/2/1 12/2/1
f 20/2/1 13/2/1 19/2/1
f 21/1/1 14/1/1 13/1/1
f 21/2/1 13/2/1 20/2/1
f 22/3/1 17/3/1 14/3/1
f 22/1/1 14/1/1 21/1/1
f 23/1/1 18/1/1 17/1/1
f 23/3/1 17/3/1 22/3/1
f 24/1/1 18/1/1 23/1/1
f 25/2/1 9/2/1 8/2/1
f 26/1/1 19/1/1 9/1/1
f 26/2/1 9/2/1 25/2/1
f 27/3/1 20/3/1 19/3/1
f 27/1/1 19/1/1 26/1/1
f 28/1/1 21/1/1 20/1/1
f 28/3/1 20/3/1 27/3/1
f 29/2/1 22/2/1 21/2/1
f 29/1/1 21/1/1 28/1/1
f 30/1/1 23/1/1 22/1/1
f 30/2/1 22/2/1 29/2/1
f 31/3/1 24/3/1 23/3/1
f 31/1/1 23/1/1 30/1/1
f 32/3/1 24/3/1 31/3/1
f 33/1/1 26/1/1 25/1/1
f 33/1/1 28/1/1 27/1/1
f 33/1/1 27/1/1 26/1/1
f 33/1/1 31/1/1 30/1/1
f 33/1/1 30/1/1 29/1/1
f 33/1/1 29/1/1 28/1/1
f 34/1/1 31/1/1 33/1/1
f 35/1/1 33/1/1 25/1/1
f 36/1/1 33/1/1 35/1/1
f 37/2/1 34/2/1 33/2/1
f 37/1/1 33/1/1 36/1/1
f 38/1/1 31/1/1 34/1/1
f 38/2/1 34/2/1 37/2/1
f 39/1/1 31/1/1 38/1/1
f 40/1/1 31/1/1 39/1/1
f 41/1/1 31/1/1 40/1/1
f 42/1/1 31/1/1 41/1/1
f 43/1/1 37/1/1 36/1/1
f 43/3/1 36/3/1 35/3/1
f 43/1/1 38/1/1 37/1/1
f 43/1/1 39/1/1 38/1/1
f 44/3/1 40/3/1 39/3/1
f 44/1/1 39/1/1 43/1/1
f 45/1/1 41/1/1 40/1/1
f 45/3/1 40/3/1 44/3/1
f 46/3/1 42/3/1 41/3/1
f 46/1/1 41/1/1 45/1/1
f 47/1/1 31/1/1 42/1/1
f 47/3/1 42/3/1 46/3/1
f 48/2/1 32/2/1 31/2/1
f 48/1/1 31/1/1 47/1/1
f 49/2/1 32/2/1 48/2/1
f 50/3/1 47/3/1 46/3/1
f 50/3/1 46/3/1 45/3/1
f 50/3/1 49/3/1 48/3/1
f 50/3/1 48/3/1 47/3/1
f 50/3/1 43/3/1 35/3/1
f 50/3/1 44/3/1 43/3/1
f 50/3/1 45/3/1 44/3/1
f 51/3/1 49/3/1 50/3/1
f 52/2/2 53/2/2 56/2/2
f 53/1/2 54/1/2 57/1/2
f 56/2/2 53/2/2 57/2/2
f 57/1/2 54/1/2 58/1/2
f 58/1/2 54/1/2 59/1/2
f 59/1/2 54/1/2 60/1/2
f 60/1/2 54/1/2 61/1/2
f 61/1/2 54/1/2 62/1/2
f 54/2/2 55/2/2 63/2/2
f 62/1/2 54/1/2 63/1/2
f 63/2/2 55/2/2 64/2/2
f 56/1/2 57/1/2 65/1/2
f 57/1/2 58/1/2 65/1/2
f 65/1/2 58/1/2 66/1/2
f 58/2/2 59/2/2 67/2/2
f 66/1/2 58/1/2 67/1/2
f 59/1/2 60/1/2 68/1/2
f 67/2/2 59/2/2 68/2/2
f 61/1/2 62/1/2 69/1/2
f 62/2/2 63/2/2 69/2/2
f 63/1/2 64/1/2 70/1/2
f 69/2/2 63/2/2 70/2/2
f 66/1/2 67/1/2 71/1/2
f 67/1/2 68/1/2 71/1/2
f 68/1/2 60/1/2 72/1/2
f 71/1/2 68/1/2 72/1/2
f 60/2/2 61/2/2 72/2/2
f 61/1/2 69/1/2 73/1/2
f 72/2/2 61/2/2 73/2/2
f 69/1/2 70/1/2 73/1/2
f 73/1/2 70/1/2 74/1/2
f 74/1/2 70/1/2 75/1/2
f 70/1/2 64/1/2 76/1/2
f 75/1/2 70/1/2 76/1/2
f 65/2/2 66/2/2 77/2/2
f 66/1/2 71/1/2 78/1/2
f 77/2/2 66/2/2 78/2/2
f 71/3/2 72/3/2 79/3/2
f 78/1/2 71/1/2 79/1/2
f 79/3/2 72/3/2 80/3/2
f 72/2/2 73/2/2 81/2/2
f 80/3/2 72/3/2 81/3/2
f 73/2/2 74/2/2 81/2/2
f 81/2/2 74/2/2 82/2/2
f 74/3/2 75/3/2 83/3/2
f 82/2/2 74/2/2 83/2/2
f 75/2/2 76/2/2 84/2/2
f 83/3/2 75/3/2 84/3/2
f 77/1/2 78/1/2 85/1/2
f 78/3/2 79/3/2 85/3/2
f 79/1/2 80/1/2 86/1/2
f 85/3/2 79/3/2 86/3/2
f 81/2/2 82/2/2 87/2/2
f 80/2/2 81/2/2 87/2/2
f 83/1/2 84/1/2 88/1/2
f 87/2/2 82/2/2 88/2/2
f 82/1/2 83/1/2 88/1/2
f 77/1/2 85/1/2 89/1/2
f 85/1/2 86/1/2 89/1/2
f 86/1/2 80/1/2 90/1/2
f 89/1/2 86/1/2 90/1/2
f 80/2/2 87/2/2 90/2/2
f 87/1/2 88/1/2 91/1/2
f 90/2/2 87/2/2 91/2/2
f 84/2/2 76/2/2 92/2/2
f 91/1/2 88/1/2 92/1/2
f 88/1/2 84/1/2 92/1/2
f 92/2/2 76/2/2 93/2/2
f 90/3/2 91/3/2 94/3/2
f 89/3/2 90/3/2 94/3/2
f 92/3/2 93/3/2 94/3/2
f 91/3/2 92/3/2 94/3/2
f 94/3/2 93/3/2 95/3/2
f 101/2/3 98/2/3 97/2/3
f 102/1/3 99/1/3 98/1/3
f 102/2/3 98/2/3 101/2/3
f 103/1/3 99/1/3 102/1/3
f 104/3/3 100/3/3 99/3/3
f 104/1/3 99/1/3 103/1/3
f 105/3/3 100/3/3 104/3/3
f 106/1/3 97/1/3 96/1/3
f 107/2/3 101/2/3 97/2/3
f 107/1/3 97/1/3 106/1/3
f 108/1/3 104/1/3 103/1/3
f 108/1/3 105/1/3 104/1/3
f 109/3/3 100/3/3 105/3/3
f 109/1/3 105/1/3 108/1/3
f 110/3/3 107/3/3 106/3/3
f 111/2/3 101/2/3 107/2/3
f 111/3/3 107/3/3 110/3/3
f 112/3/3 103/3/3 102/3/3
f 112/2/3 101/2/3 111/2/3
f 112/3/3 102/3/3 101/3/3
f 113/3/3 103/3/3 112/3/3
f 114/1/3 108/1/3 103/1/3
f 114/3/3 103/3/3 113/3/3
f 115/1/3 113/1/3 112/1/3
f 115/1/3 111/1/3 110/1/3
f 115/1/3 112/1/3 111/1/3
f 116/2/3 114/2/3 113/2/3
f 116/1/3 113/1/3 115/1/3
f 117/1/3 108/1/3 114/1/3
f 117/2/3 114/2/3 116/2/3
f 118/3/3 109/3/3 108/3/3
f 118/1/3 108/1/3 117/1/3
f 119/3/3 100/3/3 109/3/3
f 119/3/3 109/3/3 118/3/3
f 120/3/3 116/3/3 115/3/3
f 120/1/3 115/1/3 110/1/3
f 121/2/3 117/2/3 116/2/3
f 121/3/3 116/3/3 120/3/3
f 122/3/3 118/3/3 117/3/3
f 122/2/3 117/2/3 121/2/3
f 123/1/3 119/1/3 118/1/3
f 123/3/3 118/3/3 122/3/3
f 124/3/3 100/3/3 119/3/3
f 124/1/3 119/1/3 123/1/3
f 125/1/3 120/1/3 110/1/3
f 126/2/3 121/2/3 120/2/3
f 126/1/3 120/1/3 125/1/3
f 127/1/3 123/1/3 122/1/3
f 127/2/3 121/2/3 126/2/3
f 127/1/3 122/1/3 121/1/3
f 128/1/3 123/1/3 127/1/3
f 129/2/3 124/2/3 123/2/3
f 129/1/3 123/1/3 128/1/3
f 130/3/3 100/3/3 124/3/3
f 130/2/3 124/2/3 129/2/3
f 131/1/3 128/1/3 127/1/3
f 131/1/3 127/1/3 126/1/3
f 132/3/3 129/3/3 128/3/3
f 132/1/3 128/1/3 131/1/3
f 133/1/3 130/1/3 129/1/3
f 133/3/3 129/3/3 132/3/3
f 134/2/3 126/2/3 125/2/3
f 135/1/3 131/1/3 126/1/3
f 135/2/3 126/2/3 134/2/3
f 136/2/3 132/2/3 131/2/3
f 136/1/3 131/1/3 135/1/3
f 136/2/3 133/2/3 132/2/3
f 137/2/3 133/2/3 136/2/3
f 138/1/3 130/1/3 133/1/3
f 138/2/3 133/2/3 137/2/3
f 139/3/3 100/3/3 130/3/3
f 139/1/3 130/1/3 138/1/3
f 140/2/3 134/2/3 125/2/3
f 141/1/3 135/1/3 134/1/3
f 141/2/3 134/2/3 140/2/3
f 142/2/3 137/2/3 136/2/3
f 142/1/3 135/1/3 141/1/3
f 142/2/3 136/2/3 135/2/3
f 143/1/3 138/1/3 137/1/3
f 143/2/3 137/2/3 142/2/3
f 144/3/3 139/3/3 138/3/3
f 144/1/3 138/1/3 143/1/3
f 145/3/3 100/3/3 139/3/3
f 145/3/3 139/3/3 144/3/3
f 146/3/4 147/3/4 153/3/4
f 147/2/4 148/2/4 154/2/4
f 153/3/4 147/3/4 154/3/4
f 148/1/4 149/1/4 155/1/4
f 154/2/4 148/2/4 155/2/4
f 149/3/4 150/3/4 156/3/4
f 155/1/4 149/1/4 156/1/4
f 150/2/4 151/2/4 157/2/4
f 156/3/4 150/3/4 157/3/4
f 153/1/4 154/1/4 158/1/4
f 154/1/4 155/1/4 158/1/4
f 156/1/4 157/1/4 158/1/4
f 155/1/4 156/1/4 158/1/4
f 158/1/4 157/1/4 159/1/4
f 157/2/4 151/2/4 160/2/4
f 159/1/4 157/1/4 160/1/4
f 151/3/4 152/3/4 161/3/4
f 160/2/4 151/2/4 161/2/4
f 153/1/4 158/1/4 162/1/4
f 158/3/4 159/3/4 163/3/4
f 162/1/4 158/1/4 163/1/4
f 159/1/4 160/1/4 164/1/4
f 163/3/4 159/3/4 164/3/4
f 160/1/4 161/1/4 164/1/4
f 164/1/4 161/1/4 165/1/4
f 162/2/4 163/2/4 166/2/4
f 163/2/4 164/2/4 166/2/4
f 164/3/4 165/3/4 166/3/4
f 165/1/4 161/1/4 167/1/4
f 166/3/4 165/3/4 167/3/4
f 167/1/4 161/1/4 168/1/4
f 168/1/4 161/1/4 169/1/4
f 161/3/4 152/3/4 170/3/4
f 169/1/4 161/1/4 170/1/4
f 162/2/4 166/2/4 171/2/4
f 153/1/4 162/1/4 171/1/4
f 166/1/4 167/1/4 172/1/4
f 171/2/4 166/2/4 172/2/4
f 167/1/4 168/1/4 172/1/4
f 168/2/4 169/2/4 173/2/4
f 172/1/4 168/1/4 173/1/4
f 169/3/4 170/3/4 174/3/4
f 173/2/4 169/2/4 174/2/4
f 172/1/4 173/1/4 175/1/4
f 171/1/4 172/1/4 175/1/4
f 173/1/4 174/1/4 175/1/4
f 153/1/4 171/1/4 175/1/4
f 175/1/4 174/1/4 176/1/4
f 176/1/4 174/1/4 177/1/4
f 175/2/4 176/2/4 178/2/4
f 176/3/4 177/3/4 178/3/4
f 177/1/4 174/1/4 179/1/4
f 178/3/4 177/3/4 179/3/4
f 179/1/4 174/1/4 180/1/4
f 174/3/4 170/3/4 181/3/4
f 180/1/4 174/1/4 181/1/4
f 175/2/4 178/2/4 182/2/4
f 179/1/4 180/1/4 183/1/4
f 182/2/4 178/2/4 183/2/4
f 178/1/4 179/1/4 183/1/4
f 180/2/4 181/2/4 184/2/4
f 183/1/4 180/1/4 184/1/4
f 181/3/4 170/3/4 185/3/4
f 184/2/4 181/2/4 185/2/4
f 170/3/4 152/3/4 186/3/4
f 185/3/4 170/3/4 186/3/4
f 192/1/5 188/1/5 187/1/5
f 193/1/5 188/1/5 192/1/5
f 194/3/5 189/3/5 188/3/5
f 194/1/5 188/1/5 193/1/5
f 195/1/5 190/1/5 189/1/5
f 195/3/5 189/3/5 194/3/5
f 196/2/5 191/2/5 190/2/5
f 196/1/5 190/1/5 195/1/5
f 197/2/5 191/2/5 196/2/5
f 198/3/5 193/3/5 192/3/5
f 199/1/5 195/1/5 194/1/5
f 199/3/5 193/3/5 198/3/5
f 199/1/5 194/1/5 193/1/5
f 199/1/5 197/1/5 196/1/5
f 199/1/5 196/1/5 195/1/5
f 200/1/5 199/1/5 198/1/5
f 201/1/5 197/1/5 199/1/5
f 201/1/5 199/1/5 200/1/5
f 202/3/5 201/3/5 200/3/5
f 203/1/5 197/1/5 201/1/5
f 203/3/5 201/3/5 202/3/5
f 204/1/5 203/1/5 202/1/5
f 205/1/5 197/1/5 203/1/5
f 205/1/5 203/1/5 204/1/5
f 206/1/5 197/1/5 205/1/5
f 207/1/5 197/1/5 206/1/5
f 208/3/5 205/3/5 204/3/5
f 209/1/5 206/1/5 205/1/5
f 209/3/5 205/3/5 208/3/5
f 210/2/5 207/2/5 206/2/5
f 210/1/5 206/1/5 209/1/5
f 211/2/5 207/2/5 210/2/5
f 212/3/6 213/3/6 214/3/6
f 214/3/6 213/3/6 215/3/6
