# MagicaVoxel @ Ephtracy

# group
o 

# material
mtllib boxel_miel.mtl
usemtl palette

# normals
vn -1 0 0
vn 1 0 0
vn 0 0 1
vn 0 0 -1
vn 0 -1 0
vn 0 1 0

# texcoords
vt 0.0332031 0.5
vt 0.0683594 0.5
vt 0.0722656 0.5
vt 0.123047 0.5
vt 0.138672 0.5
vt 0.142578 0.5
vt 0.369141 0.5
vt 0.603516 0.5
vt 0.767578 0.5
vt 0.837891 0.5
vt 0.841797 0.5
vt 0.958984 0.5
vt 0.966797 0.5

# verts
v -0.5 0.3 -2.98023e-08
v -0.5 0.3 -0.1
v -0.5 0.4 -2.98023e-08
v -0.5 0.4 -0.1
v -0.4 0.4 -2.98023e-08
v -0.4 0.4 -0.1
v -0.4 0.5 -2.98023e-08
v -0.4 0.5 -0.1
v -0.4 0.6 -2.98023e-08
v -0.4 0.6 -0.1
v -0.4 0.7 0.1
v -0.4 0.7 -2.98023e-08
v -0.4 0.7 -0.1
v -0.4 0.7 -0.2
v -0.4 0.8 0.1
v -0.4 0.8 -2.98023e-08
v -0.4 0.8 -0.1
v -0.4 0.8 -0.2
v -0.4 0.9 -0.1
v -0.4 0.9 -0.2
v -0.4 1.1 -2.98023e-08
v -0.4 1.1 -0.2
v -0.4 1.3 -2.98023e-08
v -0.4 1.3 -0.1
v -0.4 1.5 -2.98023e-08
v -0.4 1.5 -0.1
v -0.3 0.1 0.2
v -0.3 0.1 0.1
v -0.3 0.1 -2.98023e-08
v -0.3 0.1 -0.1
v -0.3 0.1 -0.3
v -0.3 0.2 0.2
v -0.3 0.2 0.1
v -0.3 0.2 -2.98023e-08
v -0.3 0.2 -0.1
v -0.3 0.3 0.2
v -0.3 0.3 0.1
v -0.3 0.3 -2.98023e-08
v -0.3 0.3 -0.2
v -0.3 0.3 -0.3
v -0.3 0.4 0.2
v -0.3 0.4 0.1
v -0.3 0.4 -2.98023e-08
v -0.3 0.4 -0.1
v -0.3 0.4 -0.2
v -0.3 0.4 -0.3
v -0.3 0.5 0.1
v -0.3 0.5 -2.98023e-08
v -0.3 0.5 -0.1
v -0.3 0.6 -2.98023e-08
v -0.3 0.6 -0.1
v -0.3 0.6 -0.2
v -0.3 0.7 0.2
v -0.3 0.7 0.1
v -0.3 0.7 -2.98023e-08
v -0.3 0.7 -0.1
v -0.3 0.7 -0.2
v -0.3 0.7 -0.3
v -0.3 0.8 0.1
v -0.3 0.8 -2.98023e-08
v -0.3 0.8 -0.1
v -0.3 0.8 -0.2
v -0.3 0.8 -0.3
v -0.3 0.9 -0.1
v -0.3 0.9 -0.2
v -0.3 0.9 -0.3
v -0.3 1 0.2
v -0.3 1 0.1
v -0.3 1 -0.3
v -0.3 1 -0.4
v -0.3 1.1 0.2
v -0.3 1.1 0.1
v -0.3 1.1 -2.98023e-08
v -0.3 1.1 -0.2
v -0.3 1.1 -0.3
v -0.3 1.1 -0.4
v -0.3 1.2 0.2
v -0.3 1.2 -2.98023e-08
v -0.3 1.2 -0.1
v -0.3 1.2 -0.3
v -0.3 1.3 -2.98023e-08
v -0.3 1.3 -0.1
v -0.2 0 -2.98023e-08
v -0.2 0 -0.1
v -0.2 0.1 -2.98023e-08
v -0.2 0.1 -0.1
v -0.2 0.2 -2.98023e-08
v -0.2 0.2 -0.1
v -0.2 0.4 0.1
v -0.2 0.4 -2.98023e-08
v -0.2 0.4 -0.2
v -0.2 0.5 0.1
v -0.2 0.5 -2.98023e-08
v -0.2 0.5 -0.1
v -0.2 0.6 0.2
v -0.2 0.6 0.1
v -0.2 0.6 -0.1
v -0.2 0.6 -0.2
v -0.2 0.6 -0.3
v -0.2 0.7 0.2
v -0.2 0.7 0.1
v -0.2 0.7 -0.2
v -0.2 0.7 -0.3
v -0.2 0.7 -0.4
v -0.2 0.8 -0.2
v -0.2 0.8 -0.3
v -0.2 0.9 -0.2
v -0.2 0.9 -0.3
v -0.2 1 0.2
v -0.2 1 0.1
v -0.2 1 -0.3
v -0.2 1 -0.4
v -0.2 1.1 0.2
v -0.2 1.1 0.1
v -0.2 1.1 -0.3
v -0.2 1.1 -0.4
v -0.2 1.2 0.1
v -0.2 1.2 -2.98023e-08
v -0.2 1.2 -0.1
v -0.2 1.2 -0.2
v -0.2 1.2 -0.3
v -0.2 1.2 -0.4
v -0.2 1.3 0.1
v -0.2 1.3 -2.98023e-08
v -0.2 1.3 -0.1
v -0.2 1.3 -0.2
v -0.1 0.2 0.1
v -0.1 0.2 -2.98023e-08
v -0.1 0.3 0.1
v -0.1 0.3 -2.98023e-08
v -0.1 0.3 -0.3
v -0.1 0.3 -0.5
v -0.1 0.4 0.2
v -0.1 0.4 0.1
v -0.1 0.4 -0.2
v -0.1 0.4 -0.3
v -0.1 0.4 -0.4
v -0.1 0.4 -0.5
v -0.1 0.5 0.2
v -0.1 0.5 0.1
v -0.1 0.5 -0.2
v -0.1 0.5 -0.4
v -0.1 0.6 -0.3
v -0.1 0.6 -0.4
v -0.1 0.7 -0.3
v -0.1 0.7 -0.4
v -0.1 0.9 0.2
v -0.1 0.9 0.1
v -0.1 1 0.2
v -0.1 1 0.1
v 0 0.2 0.2
v 0 0.2 0.1
v 0 0.2 -0.1
v 0 0.2 -0.2
v 0 0.2 -0.4
v 0 0.2 -0.5
v 0 0.3 0.2
v 0 0.3 0.1
v 0 0.3 -0.1
v 0 0.3 -0.2
v 0 0.3 -0.4
v 0 0.3 -0.5
v 0 0.4 -0.4
v 0 0.4 -0.5
v 0 0.5 -0.4
v 0 0.5 -0.5
v 0.1 0 -2.98023e-08
v 0.1 0 -0.1
v 0.1 0.1 -2.98023e-08
v 0.1 0.1 -0.1
v 0.1 0.2 -2.98023e-08
v 0.1 0.2 -0.1
v 0.1 0.3 0.3
v 0.1 0.3 0.2
v 0.1 0.3 -2.98023e-08
v 0.1 0.3 -0.1
v 0.1 0.4 0.3
v 0.1 0.4 0.2
v 0.1 0.5 0.2
v 0.1 0.5 0.1
v 0.1 0.5 -0.2
v 0.1 0.5 -0.3
v 0.1 0.5 -0.4
v 0.1 0.6 0.1
v 0.1 0.6 -0.2
v 0.1 0.6 -0.3
v 0.1 0.6 -0.4
v 0.1 0.7 0.2
v 0.1 0.7 0.1
v 0.1 0.9 0.2
v 0.1 0.9 0.1
v 0.1 1 0.2
v 0.1 1 0.1
v 0.2 0.2 0.1
v 0.2 0.2 -2.98023e-08
v 0.2 0.3 0.1
v 0.2 0.3 -2.98023e-08
v 0.2 0.6 0.3
v 0.2 0.6 0.2
v 0.2 0.6 -0.3
v 0.2 0.6 -0.4
v 0.2 0.7 0.3
v 0.2 0.7 0.2
v 0.2 0.7 0.1
v 0.2 0.7 -0.3
v 0.2 0.7 -0.4
v 0.2 0.8 0.1
v 0.2 0.9 0.2
v 0.2 0.9 0.1
v 0.2 1 0.2
v 0.2 1 0.1
v 0.2 1.1 0.2
v 0.2 1.1 0.1
v 0.2 1.3 -2.98023e-08
v 0.2 1.3 -0.1
v 0.2 1.4 -2.98023e-08
v 0.2 1.4 -0.1
v 0.3 0.5 -2.98023e-08
v 0.3 0.5 -0.1
v 0.3 0.5 -0.4
v 0.3 0.5 -0.5
v 0.3 0.6 -2.98023e-08
v 0.3 0.6 -0.1
v 0.3 0.6 -0.4
v 0.3 0.6 -0.5
v 0.3 0.7 0.1
v 0.3 0.7 -2.98023e-08
v 0.3 0.8 0.1
v 0.3 0.8 -2.98023e-08
v 0.3 1.4 -2.98023e-08
v 0.3 1.4 -0.1
v 0.3 1.5 -2.98023e-08
v 0.3 1.5 -0.1
v 0.4 0.4 -2.98023e-08
v 0.4 0.4 -0.1
v 0.4 0.5 -2.98023e-08
v 0.4 0.5 -0.1
v 0.4 0.6 -0.2
v 0.4 0.6 -0.3
v 0.4 0.6 -0.4
v 0.4 0.6 -0.5
v 0.4 0.7 -0.2
v 0.4 0.7 -0.3
v 0.4 0.7 -0.4
v 0.4 0.7 -0.5
v 0.5 0.3 -0.4
v 0.5 0.3 -0.5
v 0.5 0.4 -0.4
v 0.5 0.4 -0.5
v 0.5 0.7 -0.4
v 0.5 0.7 -0.5
v 0.5 0.8 -0.4
v 0.5 0.8 -0.5
v -0.4 0.3 -2.98023e-08
v -0.4 0.3 -0.1
v -0.4 0.4 -2.98023e-08
v -0.4 0.4 -0.1
v -0.3 0.4 -2.98023e-08
v -0.3 0.4 -0.1
v -0.3 0.5 -2.98023e-08
v -0.3 0.5 -0.1
v -0.3 1.4 -2.98023e-08
v -0.3 1.4 -0.1
v -0.3 1.5 -2.98023e-08
v -0.3 1.5 -0.1
v -0.2 0.1 0.2
v -0.2 0.1 0.1
v -0.2 0.1 -2.98023e-08
v -0.2 0.1 -0.1
v -0.2 0.1 -0.2
v -0.2 0.2 0.2
v -0.2 0.2 0.1
v -0.2 0.2 -2.98023e-08
v -0.2 0.2 -0.1
v -0.2 0.2 -0.2
v -0.2 0.3 0.1
v -0.2 0.3 -2.98023e-08
v -0.2 0.7 0.2
v -0.2 0.7 0.1
v -0.2 0.8 0.1
v -0.2 0.9 0.1
v -0.2 1 0.2
v -0.2 1 0.1
v -0.2 1.3 -2.98023e-08
v -0.2 1.3 -0.1
v -0.2 1.4 -2.98023e-08
v -0.2 1.4 -0.1
v -0.1 0 -2.98023e-08
v -0.1 0 -0.1
v -0.1 0.1 -2.98023e-08
v -0.1 0.1 -0.1
v -0.1 0.1 -0.2
v -0.1 0.1 -0.3
v -0.1 0.2 0.2
v -0.1 0.2 0.1
v -0.1 0.2 -2.98023e-08
v -0.1 0.2 -0.1
v -0.1 0.2 -0.2
v -0.1 0.2 -0.3
v -0.1 0.3 0.2
v -0.1 0.3 0.1
v -0.1 0.3 -2.98023e-08
v -0.1 0.3 -0.2
v -0.1 0.6 0.2
v -0.1 0.6 0.1
v -0.1 0.7 0.2
v -0.1 0.7 0.1
v 0 0.2 0.1
v 0 0.2 -2.98023e-08
v 0 0.3 0.1
v 0 0.3 -2.98023e-08
v 0 0.4 -0.2
v 0 0.4 -0.3
v 0 0.5 -0.2
v 0 0.5 -0.3
v 0 0.9 0.2
v 0 0.9 0.1
v 0 1 0.1
v 0 1.1 0.2
v 0 1.1 0.1
v 0.1 0.2 -0.2
v 0.1 0.2 -0.3
v 0.1 0.3 -0.2
v 0.1 0.3 -0.3
v 0.1 0.3 -0.4
v 0.1 0.4 -0.3
v 0.1 0.5 -0.3
v 0.1 0.5 -0.4
v 0.1 0.6 -0.3
v 0.1 0.6 -0.4
v 0.1 0.7 -0.3
v 0.1 0.7 -0.4
v 0.1 1.1 -0.3
v 0.1 1.1 -0.4
v 0.1 1.2 -0.3
v 0.1 1.2 -0.4
v 0.2 0 -2.98023e-08
v 0.2 0 -0.1
v 0.2 0.1 -2.98023e-08
v 0.2 0.1 -0.1
v 0.2 0.2 0.2
v 0.2 0.2 0.1
v 0.2 0.2 -2.98023e-08
v 0.2 0.2 -0.1
v 0.2 0.3 0.3
v 0.2 0.3 0.2
v 0.2 0.3 0.1
v 0.2 0.4 0.3
v 0.2 0.4 0.2
v 0.2 0.4 0.1
v 0.2 0.4 -2.98023e-08
v 0.2 0.4 -0.2
v 0.2 0.5 0.1
v 0.2 0.5 -2.98023e-08
v 0.2 0.5 -0.2
v 0.2 0.5 -0.3
v 0.2 0.5 -0.4
v 0.2 0.6 -2.98023e-08
v 0.2 0.6 -0.3
v 0.2 0.6 -0.4
v 0.2 0.7 0.1
v 0.2 0.7 -2.98023e-08
v 0.2 0.8 0.1
v 0.2 0.8 -2.98023e-08
v 0.2 0.9 -0.3
v 0.2 0.9 -0.4
v 0.2 1 -0.2
v 0.2 1 -0.3
v 0.2 1.1 -0.2
v 0.2 1.1 -0.3
v 0.2 1.1 -0.4
v 0.2 1.2 0.1
v 0.2 1.2 -2.98023e-08
v 0.2 1.2 -0.1
v 0.2 1.2 -0.2
v 0.2 1.3 0.1
v 0.2 1.3 -2.98023e-08
v 0.2 1.3 -0.1
v 0.2 1.3 -0.2
v 0.3 0.2 0.1
v 0.3 0.2 -0.2
v 0.3 0.2 -0.4
v 0.3 0.2 -0.5
v 0.3 0.3 0.2
v 0.3 0.3 0.1
v 0.3 0.3 -2.98023e-08
v 0.3 0.3 -0.1
v 0.3 0.3 -0.2
v 0.3 0.3 -0.3
v 0.3 0.3 -0.4
v 0.3 0.3 -0.5
v 0.3 0.4 0.2
v 0.3 0.4 0.1
v 0.3 0.4 -2.98023e-08
v 0.3 0.4 -0.1
v 0.3 0.4 -0.3
v 0.3 0.5 0.1
v 0.3 0.5 -2.98023e-08
v 0.3 0.6 0.3
v 0.3 0.6 0.2
v 0.3 0.6 -2.98023e-08
v 0.3 0.6 -0.2
v 0.3 0.6 -0.4
v 0.3 0.7 0.3
v 0.3 0.7 0.2
v 0.3 0.7 0.1
v 0.3 0.8 0.1
v 0.3 0.8 -0.1
v 0.3 0.9 -0.1
v 0.3 0.9 -0.2
v 0.3 0.9 -0.3
v 0.3 0.9 -0.4
v 0.3 1 -0.2
v 0.3 1 -0.3
v 0.3 1.1 -0.2
v 0.3 1.1 -0.3
v 0.3 1.2 0.2
v 0.3 1.2 -2.98023e-08
v 0.3 1.2 -0.1
v 0.3 1.2 -0.3
v 0.3 1.3 -2.98023e-08
v 0.3 1.3 -0.1
v 0.4 0.3 -2.98023e-08
v 0.4 0.3 -0.1
v 0.4 0.3 -0.4
v 0.4 0.3 -0.5
v 0.4 0.4 -2.98023e-08
v 0.4 0.4 -0.1
v 0.4 0.4 -0.4
v 0.4 0.4 -0.5
v 0.4 0.5 -2.98023e-08
v 0.4 0.5 -0.1
v 0.4 0.6 0.2
v 0.4 0.6 -2.98023e-08
v 0.4 0.6 -0.1
v 0.4 0.6 -0.2
v 0.4 0.7 0.2
v 0.4 0.7 0.1
v 0.4 0.7 -0.2
v 0.4 0.8 0.1
v 0.4 0.8 -0.1
v 0.4 0.9 -0.1
v 0.4 0.9 -0.2
v 0.4 1.3 -2.98023e-08
v 0.4 1.3 -0.1
v 0.4 1.5 -2.98023e-08
v 0.4 1.5 -0.1
v 0.5 0.4 -2.98023e-08
v 0.5 0.4 -0.1
v 0.5 0.5 -2.98023e-08
v 0.5 0.5 -0.1
v 0.5 0.6 -0.2
v 0.5 0.6 -0.3
v 0.5 0.7 -0.2
v 0.5 0.7 -0.3
v 0.7 0.3 -0.4
v 0.7 0.3 -0.5
v 0.7 0.4 -0.4
v 0.7 0.4 -0.5
v 0.7 0.5 -0.4
v 0.7 0.5 -0.5
v 0.7 0.6 -0.4
v 0.7 0.6 -0.5
v 0.7 0.7 -0.4
v 0.7 0.7 -0.5
v 0.7 0.8 -0.4
v 0.7 0.8 -0.5
v 0.8 0.4 -0.4
v 0.8 0.4 -0.5
v 0.8 0.5 -0.4
v 0.8 0.5 -0.5
v 0.8 0.6 -0.4
v 0.8 0.6 -0.5
v 0.8 0.7 -0.4
v 0.8 0.7 -0.5
v 0.1 0.3 0.3
v 0.1 0.4 0.3
v 0.2 0.3 0.3
v 0.2 0.4 0.3
v 0.2 0.6 0.3
v 0.2 0.7 0.3
v 0.3 0.6 0.3
v 0.3 0.7 0.3
v -0.3 0.1 0.2
v -0.3 0.2 0.2
v -0.3 0.3 0.2
v -0.3 0.4 0.2
v -0.3 0.7 0.2
v -0.3 1 0.2
v -0.3 1.1 0.2
v -0.3 1.2 0.2
v -0.2 0.1 0.2
v -0.2 0.2 0.2
v -0.2 0.3 0.2
v -0.2 0.4 0.2
v -0.2 0.6 0.2
v -0.2 0.7 0.2
v -0.2 1 0.2
v -0.2 1.1 0.2
v -0.1 0.2 0.2
v -0.1 0.3 0.2
v -0.1 0.4 0.2
v -0.1 0.5 0.2
v -0.1 0.6 0.2
v -0.1 0.7 0.2
v -0.1 0.9 0.2
v -0.1 1 0.2
v 0 0.2 0.2
v 0 0.3 0.2
v 0 0.4 0.2
v 0 0.5 0.2
v 0 0.9 0.2
v 0 1.1 0.2
v 0.1 0.3 0.2
v 0.1 0.4 0.2
v 0.1 0.5 0.2
v 0.1 0.7 0.2
v 0.1 0.9 0.2
v 0.1 1 0.2
v 0.2 0.2 0.2
v 0.2 0.3 0.2
v 0.2 0.4 0.2
v 0.2 0.6 0.2
v 0.2 0.7 0.2
v 0.2 0.9 0.2
v 0.2 1 0.2
v 0.2 1.1 0.2
v 0.3 0.3 0.2
v 0.3 0.4 0.2
v 0.3 0.6 0.2
v 0.3 0.7 0.2
v 0.3 1.2 0.2
v 0.4 0.6 0.2
v 0.4 0.7 0.2
v -0.4 0.7 0.1
v -0.4 0.8 0.1
v -0.3 0.5 0.1
v -0.3 0.7 0.1
v -0.3 0.8 0.1
v -0.3 1 0.1
v -0.3 1.1 0.1
v -0.2 0.4 0.1
v -0.2 0.5 0.1
v -0.2 0.6 0.1
v -0.2 0.7 0.1
v -0.2 0.8 0.1
v -0.2 0.9 0.1
v -0.2 1 0.1
v -0.2 1.1 0.1
v -0.2 1.2 0.1
v -0.2 1.3 0.1
v -0.1 0.2 0.1
v -0.1 0.3 0.1
v -0.1 0.4 0.1
v -0.1 0.5 0.1
v -0.1 0.6 0.1
v -0.1 0.7 0.1
v -0.1 0.8 0.1
v -0.1 0.9 0.1
v -0.1 1 0.1
v 0 0.2 0.1
v 0 0.3 0.1
v 0 0.5 0.1
v 0 0.6 0.1
v 0 0.7 0.1
v 0 0.9 0.1
v 0 1 0.1
v 0 1.1 0.1
v 0.1 0.5 0.1
v 0.1 0.6 0.1
v 0.1 0.7 0.1
v 0.1 0.8 0.1
v 0.1 0.9 0.1
v 0.1 1 0.1
v 0.2 0.2 0.1
v 0.2 0.3 0.1
v 0.2 0.7 0.1
v 0.2 0.8 0.1
v 0.2 0.9 0.1
v 0.2 1 0.1
v 0.2 1.1 0.1
v 0.2 1.2 0.1
v 0.2 1.3 0.1
v 0.3 0.2 0.1
v 0.3 0.3 0.1
v 0.3 0.7 0.1
v 0.3 0.8 0.1
v 0.4 0.7 0.1
v 0.4 0.8 0.1
v -0.5 0.3 -2.98023e-08
v -0.5 0.4 -2.98023e-08
v -0.4 0.3 -2.98023e-08
v -0.4 0.4 -2.98023e-08
v -0.4 0.5 -2.98023e-08
v -0.4 0.6 -2.98023e-08
v -0.4 0.7 -2.98023e-08
v -0.4 0.8 -2.98023e-08
v -0.4 1.1 -2.98023e-08
v -0.4 1.3 -2.98023e-08
v -0.4 1.5 -2.98023e-08
v -0.3 0.4 -2.98023e-08
v -0.3 0.5 -2.98023e-08
v -0.3 0.6 -2.98023e-08
v -0.3 0.7 -2.98023e-08
v -0.3 0.8 -2.98023e-08
v -0.3 1.1 -2.98023e-08
v -0.3 1.2 -2.98023e-08
v -0.3 1.3 -2.98023e-08
v -0.3 1.4 -2.98023e-08
v -0.3 1.5 -2.98023e-08
v -0.2 0 -2.98023e-08
v -0.2 0.1 -2.98023e-08
v -0.2 0.2 -2.98023e-08
v -0.2 0.3 -2.98023e-08
v -0.2 1.2 -2.98023e-08
v -0.2 1.3 -2.98023e-08
v -0.2 1.4 -2.98023e-08
v -0.1 0 -2.98023e-08
v -0.1 0.1 -2.98023e-08
v -0.1 0.2 -2.98023e-08
v -0.1 0.3 -2.98023e-08
v 0.1 0 -2.98023e-08
v 0.1 0.1 -2.98023e-08
v 0.1 0.2 -2.98023e-08
v 0.1 0.3 -2.98023e-08
v 0.2 0 -2.98023e-08
v 0.2 0.1 -2.98023e-08
v 0.2 0.2 -2.98023e-08
v 0.2 0.3 -2.98023e-08
v 0.2 0.7 -2.98023e-08
v 0.2 0.8 -2.98023e-08
v 0.2 1.2 -2.98023e-08
v 0.2 1.3 -2.98023e-08
v 0.2 1.4 -2.98023e-08
v 0.3 0.3 -2.98023e-08
v 0.3 0.4 -2.98023e-08
v 0.3 0.5 -2.98023e-08
v 0.3 0.6 -2.98023e-08
v 0.3 0.7 -2.98023e-08
v 0.3 0.8 -2.98023e-08
v 0.3 1.2 -2.98023e-08
v 0.3 1.3 -2.98023e-08
v 0.3 1.4 -2.98023e-08
v 0.3 1.5 -2.98023e-08
v 0.4 0.3 -2.98023e-08
v 0.4 0.4 -2.98023e-08
v 0.4 0.5 -2.98023e-08
v 0.4 0.6 -2.98023e-08
v 0.4 1.3 -2.98023e-08
v 0.4 1.5 -2.98023e-08
v 0.5 0.4 -2.98023e-08
v 0.5 0.5 -2.98023e-08
v -0.3 0.1 -0.1
v -0.3 0.2 -0.1
v -0.2 0.1 -0.1
v -0.2 0.2 -0.1
v 0 0.2 -0.1
v 0 0.3 -0.1
v 0.1 0.2 -0.1
v 0.1 0.3 -0.1
v 0.3 0.8 -0.1
v 0.3 0.9 -0.1
v 0.4 0.8 -0.1
v 0.4 0.9 -0.1
v -0.2 0.1 -0.2
v -0.2 0.2 -0.2
v -0.1 0.1 -0.2
v -0.1 0.2 -0.2
v -0.1 0.3 -0.2
v 0 0.2 -0.2
v 0 0.3 -0.2
v 0.4 0.6 -0.2
v 0.4 0.7 -0.2
v 0.5 0.6 -0.2
v 0.5 0.7 -0.2
v 0 0.4 -0.3
v 0 0.5 -0.3
v 0.1 0.4 -0.3
v 0.1 0.5 -0.3
v 0 0.2 -0.4
v 0 0.3 -0.4
v 0.1 0.3 -0.4
v 0.1 0.5 -0.4
v 0.2 0.5 -0.4
v 0.3 0.2 -0.4
v 0.3 0.3 -0.4
v 0.3 0.5 -0.4
v 0.3 0.6 -0.4
v 0.4 0.3 -0.4
v 0.4 0.4 -0.4
v 0.4 0.6 -0.4
v 0.4 0.7 -0.4
v 0.5 0.3 -0.4
v 0.5 0.4 -0.4
v 0.5 0.5 -0.4
v 0.5 0.6 -0.4
v 0.5 0.7 -0.4
v 0.5 0.8 -0.4
v 0.6 0.4 -0.4
v 0.6 0.5 -0.4
v 0.6 0.6 -0.4
v 0.6 0.7 -0.4
v 0.7 0.3 -0.4
v 0.7 0.4 -0.4
v 0.7 0.5 -0.4
v 0.7 0.6 -0.4
v 0.7 0.7 -0.4
v 0.7 0.8 -0.4
v 0.8 0.4 -0.4
v 0.8 0.5 -0.4
v 0.8 0.6 -0.4
v 0.8 0.7 -0.4
v -0.2 0.2 0.1
v -0.2 0.3 0.1
v -0.1 0.2 0.1
v -0.1 0.3 0.1
v 0 0.2 0.1
v 0 0.3 0.1
v 0.2 0.2 0.1
v 0.2 0.3 0.1
v 0.2 0.4 0.1
v 0.2 0.5 0.1
v 0.2 0.7 0.1
v 0.2 0.8 0.1
v 0.3 0.4 0.1
v 0.3 0.5 0.1
v 0.3 0.7 0.1
v 0.3 0.8 0.1
v -0.3 0.1 -2.98023e-08
v -0.3 0.2 -2.98023e-08
v -0.2 0.1 -2.98023e-08
v -0.2 0.2 -2.98023e-08
v -0.1 0.2 -2.98023e-08
v -0.1 0.3 -2.98023e-08
v 0 0.2 -2.98023e-08
v 0 0.3 -2.98023e-08
v 0.2 0.5 -2.98023e-08
v 0.2 0.6 -2.98023e-08
v 0.3 0.5 -2.98023e-08
v 0.3 0.6 -2.98023e-08
v -0.5 0.3 -0.1
v -0.5 0.4 -0.1
v -0.4 0.3 -0.1
v -0.4 0.4 -0.1
v -0.4 0.5 -0.1
v -0.4 0.6 -0.1
v -0.4 0.7 -0.1
v -0.4 0.8 -0.1
v -0.4 0.9 -0.1
v -0.4 1.3 -0.1
v -0.4 1.5 -0.1
v -0.3 0.4 -0.1
v -0.3 0.5 -0.1
v -0.3 0.6 -0.1
v -0.3 0.7 -0.1
v -0.3 0.8 -0.1
v -0.3 0.9 -0.1
v -0.3 1.2 -0.1
v -0.3 1.3 -0.1
v -0.3 1.4 -0.1
v -0.3 1.5 -0.1
v -0.2 0 -0.1
v -0.2 0.1 -0.1
v -0.2 0.2 -0.1
v -0.2 0.5 -0.1
v -0.2 0.6 -0.1
v -0.2 1.2 -0.1
v -0.2 1.3 -0.1
v -0.2 1.4 -0.1
v -0.1 0 -0.1
v -0.1 0.1 -0.1
v -0.1 0.2 -0.1
v 0.1 0 -0.1
v 0.1 0.1 -0.1
v 0.1 0.2 -0.1
v 0.2 0 -0.1
v 0.2 0.1 -0.1
v 0.2 0.2 -0.1
v 0.2 1.2 -0.1
v 0.2 1.3 -0.1
v 0.2 1.4 -0.1
v 0.3 0.3 -0.1
v 0.3 0.4 -0.1
v 0.3 0.5 -0.1
v 0.3 0.6 -0.1
v 0.3 1.2 -0.1
v 0.3 1.3 -0.1
v 0.3 1.4 -0.1
v 0.3 1.5 -0.1
v 0.4 0.3 -0.1
v 0.4 0.4 -0.1
v 0.4 0.5 -0.1
v 0.4 0.6 -0.1
v 0.4 1.3 -0.1
v 0.4 1.5 -0.1
v 0.5 0.4 -0.1
v 0.5 0.5 -0.1
v -0.4 0.7 -0.2
v -0.4 0.8 -0.2
v -0.4 0.9 -0.2
v -0.4 1.1 -0.2
v -0.3 0.6 -0.2
v -0.3 0.7 -0.2
v -0.3 0.8 -0.2
v -0.3 0.9 -0.2
v -0.3 1.1 -0.2
v -0.2 0.4 -0.2
v -0.2 0.6 -0.2
v -0.2 0.7 -0.2
v -0.2 0.8 -0.2
v -0.2 0.9 -0.2
v -0.2 1.2 -0.2
v -0.2 1.3 -0.2
v -0.1 0.4 -0.2
v -0.1 0.5 -0.2
v -0.1 0.6 -0.2
v 0 0.4 -0.2
v 0 0.5 -0.2
v 0.1 0.2 -0.2
v 0.1 0.3 -0.2
v 0.1 0.5 -0.2
v 0.1 0.6 -0.2
v 0.2 0.4 -0.2
v 0.2 0.5 -0.2
v 0.2 1 -0.2
v 0.2 1.1 -0.2
v 0.2 1.2 -0.2
v 0.2 1.3 -0.2
v 0.3 0.2 -0.2
v 0.3 0.3 -0.2
v 0.3 0.6 -0.2
v 0.3 0.9 -0.2
v 0.3 1 -0.2
v 0.3 1.1 -0.2
v 0.4 0.6 -0.2
v 0.4 0.7 -0.2
v 0.4 0.9 -0.2
v -0.3 0.1 -0.3
v -0.3 0.3 -0.3
v -0.3 0.4 -0.3
v -0.3 0.7 -0.3
v -0.3 0.8 -0.3
v -0.3 0.9 -0.3
v -0.3 1 -0.3
v -0.3 1.1 -0.3
v -0.3 1.2 -0.3
v -0.2 0.3 -0.3
v -0.2 0.4 -0.3
v -0.2 0.6 -0.3
v -0.2 0.7 -0.3
v -0.2 0.8 -0.3
v -0.2 0.9 -0.3
v -0.2 1 -0.3
v -0.2 1.1 -0.3
v -0.2 1.2 -0.3
v -0.1 0.1 -0.3
v -0.1 0.2 -0.3
v -0.1 0.3 -0.3
v -0.1 0.4 -0.3
v -0.1 0.6 -0.3
v -0.1 0.7 -0.3
v 0 0.2 -0.3
v 0 0.3 -0.3
v 0.1 0.2 -0.3
v 0.1 0.3 -0.3
v 0.1 0.4 -0.3
v 0.1 0.6 -0.3
v 0.1 0.7 -0.3
v 0.1 1.1 -0.3
v 0.1 1.2 -0.3
v 0.2 0.6 -0.3
v 0.2 0.7 -0.3
v 0.2 0.9 -0.3
v 0.2 1 -0.3
v 0.2 1.1 -0.3
v 0.3 0.3 -0.3
v 0.3 0.4 -0.3
v 0.3 0.9 -0.3
v 0.3 1 -0.3
v 0.3 1.1 -0.3
v 0.3 1.2 -0.3
v 0.4 0.6 -0.3
v 0.4 0.7 -0.3
v 0.5 0.6 -0.3
v 0.5 0.7 -0.3
v -0.3 1 -0.4
v -0.3 1.1 -0.4
v -0.2 0.7 -0.4
v -0.2 1 -0.4
v -0.2 1.1 -0.4
v -0.2 1.2 -0.4
v -0.1 0.4 -0.4
v -0.1 0.5 -0.4
v -0.1 0.6 -0.4
v -0.1 0.7 -0.4
v 0 0.4 -0.4
v 0 0.5 -0.4
v 0.1 0.5 -0.4
v 0.1 0.6 -0.4
v 0.1 0.7 -0.4
v 0.1 1.1 -0.4
v 0.1 1.2 -0.4
v 0.2 0.5 -0.4
v 0.2 0.6 -0.4
v 0.2 0.7 -0.4
v 0.2 0.9 -0.4
v 0.2 1.1 -0.4
v 0.3 0.6 -0.4
v 0.3 0.9 -0.4
v -0.1 0.3 -0.5
v -0.1 0.4 -0.5
v 0 0.2 -0.5
v 0 0.3 -0.5
v 0 0.4 -0.5
v 0 0.5 -0.5
v 0.3 0.2 -0.5
v 0.3 0.3 -0.5
v 0.3 0.5 -0.5
v 0.3 0.6 -0.5
v 0.4 0.3 -0.5
v 0.4 0.4 -0.5
v 0.4 0.6 -0.5
v 0.4 0.7 -0.5
v 0.5 0.3 -0.5
v 0.5 0.4 -0.5
v 0.5 0.5 -0.5
v 0.5 0.6 -0.5
v 0.5 0.7 -0.5
v 0.5 0.8 -0.5
v 0.6 0.4 -0.5
v 0.6 0.5 -0.5
v 0.6 0.6 -0.5
v 0.6 0.7 -0.5
v 0.7 0.3 -0.5
v 0.7 0.4 -0.5
v 0.7 0.5 -0.5
v 0.7 0.6 -0.5
v 0.7 0.7 -0.5
v 0.7 0.8 -0.5
v 0.8 0.4 -0.5
v 0.8 0.5 -0.5
v 0.8 0.6 -0.5
v 0.8 0.7 -0.5
v -0.2 0 -2.98023e-08
v -0.1 0 -2.98023e-08
v 0.1 0 -2.98023e-08
v 0.2 0 -2.98023e-08
v -0.2 0 -0.1
v -0.1 0 -0.1
v 0.1 0 -0.1
v 0.2 0 -0.1
v -0.3 0.1 0.2
v -0.2 0.1 0.2
v -0.3 0.1 0.1
v -0.2 0.1 0.1
v -0.3 0.1 -2.98023e-08
v -0.2 0.1 -2.98023e-08
v -0.3 0.1 -0.1
v -0.2 0.1 -0.1
v -0.2 0.1 -0.2
v -0.1 0.1 -0.2
v -0.3 0.1 -0.3
v -0.1 0.1 -0.3
v -0.2 0.2 0.2
v -0.1 0.2 0.2
v 0 0.2 0.2
v 0.2 0.2 0.2
v -0.2 0.2 0.1
v -0.1 0.2 0.1
v 0 0.2 0.1
v 0.2 0.2 0.1
v 0.3 0.2 0.1
v -0.3 0.2 -2.98023e-08
v -0.2 0.2 -2.98023e-08
v -0.1 0.2 -2.98023e-08
v 0 0.2 -2.98023e-08
v 0.2 0.2 -2.98023e-08
v -0.3 0.2 -0.1
v -0.2 0.2 -0.1
v -0.1 0.2 -0.1
v 0 0.2 -0.1
v 0.1 0.2 -0.1
v 0.2 0.2 -0.1
v -0.2 0.2 -0.2
v -0.1 0.2 -0.2
v 0 0.2 -0.2
v 0.1 0.2 -0.2
v 0.3 0.2 -0.2
v -0.1 0.2 -0.3
v 0 0.2 -0.3
v 0.1 0.2 -0.3
v 0 0.2 -0.4
v 0.3 0.2 -0.4
v 0 0.2 -0.5
v 0.3 0.2 -0.5
v 0.1 0.3 0.3
v 0.2 0.3 0.3
v -0.1 0.3 0.2
v 0 0.3 0.2
v 0.1 0.3 0.2
v 0.2 0.3 0.2
v 0.3 0.3 0.2
v -0.2 0.3 0.1
v -0.1 0.3 0.1
v 0 0.3 0.1
v 0.2 0.3 0.1
v 0.3 0.3 0.1
v -0.5 0.3 -2.98023e-08
v -0.4 0.3 -2.98023e-08
v -0.2 0.3 -2.98023e-08
v -0.1 0.3 -2.98023e-08
v 0 0.3 -2.98023e-08
v 0.1 0.3 -2.98023e-08
v 0.2 0.3 -2.98023e-08
v 0.3 0.3 -2.98023e-08
v 0.4 0.3 -2.98023e-08
v -0.5 0.3 -0.1
v -0.4 0.3 -0.1
v 0 0.3 -0.1
v 0.1 0.3 -0.1
v 0.3 0.3 -0.1
v 0.4 0.3 -0.1
v -0.1 0.3 -0.2
v 0 0.3 -0.2
v 0.1 0.3 -0.2
v 0.3 0.3 -0.2
v -0.1 0.3 -0.3
v 0 0.3 -0.3
v 0.1 0.3 -0.3
v 0.3 0.3 -0.3
v 0 0.3 -0.4
v 0.1 0.3 -0.4
v 0.3 0.3 -0.4
v 0.4 0.3 -0.4
v 0.5 0.3 -0.4
v 0.7 0.3 -0.4
v -0.1 0.3 -0.5
v 0 0.3 -0.5
v 0.3 0.3 -0.5
v 0.4 0.3 -0.5
v 0.5 0.3 -0.5
v 0.7 0.3 -0.5
v -0.4 0.4 -2.98023e-08
v -0.3 0.4 -2.98023e-08
v 0.4 0.4 -2.98023e-08
v 0.5 0.4 -2.98023e-08
v -0.4 0.4 -0.1
v -0.3 0.4 -0.1
v 0.4 0.4 -0.1
v 0.5 0.4 -0.1
v 0.4 0.4 -0.4
v 0.5 0.4 -0.4
v 0.7 0.4 -0.4
v 0.8 0.4 -0.4
v 0.4 0.4 -0.5
v 0.5 0.4 -0.5
v 0.7 0.4 -0.5
v 0.8 0.4 -0.5
v -0.3 0.5 0.1
v -0.2 0.5 0.1
v 0.2 0.5 0.1
v 0.3 0.5 0.1
v -0.3 0.5 -2.98023e-08
v -0.2 0.5 -2.98023e-08
v 0.2 0.5 -2.98023e-08
v 0.3 0.5 -2.98023e-08
v 0.4 0.5 -2.98023e-08
v -0.3 0.5 -0.1
v -0.2 0.5 -0.1
v 0.3 0.5 -0.1
v 0.4 0.5 -0.1
v 0.1 0.5 -0.2
v 0.2 0.5 -0.2
v 0.1 0.5 -0.3
v 0.2 0.5 -0.3
v 0.1 0.5 -0.4
v 0.2 0.5 -0.4
v 0.2 0.6 0.3
v 0.3 0.6 0.3
v -0.2 0.6 0.2
v -0.1 0.6 0.2
v 0.2 0.6 0.2
v 0.3 0.6 0.2
v 0.4 0.6 0.2
v -0.2 0.6 0.1
v -0.1 0.6 0.1
v -0.4 0.6 -2.98023e-08
v -0.3 0.6 -2.98023e-08
v 0.2 0.6 -2.98023e-08
v 0.3 0.6 -2.98023e-08
v 0.4 0.6 -2.98023e-08
v -0.4 0.6 -0.1
v -0.3 0.6 -0.1
v -0.2 0.6 -0.1
v 0.3 0.6 -0.1
v 0.4 0.6 -0.1
v -0.3 0.6 -0.2
v -0.2 0.6 -0.2
v -0.1 0.6 -0.2
v 0.1 0.6 -0.2
v 0.3 0.6 -0.2
v 0.4 0.6 -0.2
v 0.5 0.6 -0.2
v -0.2 0.6 -0.3
v -0.1 0.6 -0.3
v 0.1 0.6 -0.3
v 0.2 0.6 -0.3
v 0.4 0.6 -0.3
v 0.5 0.6 -0.3
v -0.1 0.6 -0.4
v 0.1 0.6 -0.4
v 0.2 0.6 -0.4
v 0.3 0.6 -0.4
v 0.7 0.6 -0.4
v 0.8 0.6 -0.4
v 0.7 0.6 -0.5
v 0.8 0.6 -0.5
v -0.3 0.7 0.2
v -0.2 0.7 0.2
v -0.4 0.7 0.1
v -0.3 0.7 0.1
v -0.2 0.7 0.1
v -0.4 0.7 -2.98023e-08
v -0.3 0.7 -2.98023e-08
v -0.4 0.7 -0.1
v -0.3 0.7 -0.1
v -0.4 0.7 -0.2
v -0.3 0.7 -0.2
v -0.2 0.7 -0.2
v -0.3 0.7 -0.3
v -0.2 0.7 -0.3
v -0.1 0.7 -0.3
v 0.1 0.7 -0.3
v 0.2 0.7 -0.3
v -0.2 0.7 -0.4
v -0.1 0.7 -0.4
v 0.1 0.7 -0.4
v 0.2 0.7 -0.4
v 0.2 0.8 0.1
v 0.3 0.8 0.1
v 0.2 0.8 -2.98023e-08
v 0.3 0.8 -2.98023e-08
v -0.1 0.9 0.2
v 0 0.9 0.2
v 0.1 0.9 0.2
v 0.2 0.9 0.2
v -0.1 0.9 0.1
v 0 0.9 0.1
v 0.1 0.9 0.1
v 0.2 0.9 0.1
v -0.4 0.9 -0.1
v -0.3 0.9 -0.1
v -0.4 0.9 -0.2
v -0.3 0.9 -0.2
v -0.2 0.9 -0.2
v -0.3 0.9 -0.3
v -0.2 0.9 -0.3
v -0.2 1 0.2
v -0.1 1 0.2
v -0.2 1 0.1
v -0.1 1 0.1
v -0.3 1 -0.3
v -0.2 1 -0.3
v -0.3 1 -0.4
v -0.2 1 -0.4
v -0.3 1.1 0.2
v -0.2 1.1 0.2
v 0 1.1 0.2
v 0.2 1.1 0.2
v -0.3 1.1 0.1
v -0.2 1.1 0.1
v 0 1.1 0.1
v 0.2 1.1 0.1
v 0.2 1.1 -0.2
v 0.3 1.1 -0.2
v 0.2 1.1 -0.3
v 0.3 1.1 -0.3
v -0.4 1.3 -2.98023e-08
v -0.3 1.3 -2.98023e-08
v 0.3 1.3 -2.98023e-08
v 0.4 1.3 -2.98023e-08
v -0.4 1.3 -0.1
v -0.3 1.3 -0.1
v 0.3 1.3 -0.1
v 0.4 1.3 -0.1
v 0.1 0.4 0.3
v 0.2 0.4 0.3
v -0.3 0.4 0.2
v -0.2 0.4 0.2
v -0.1 0.4 0.2
v 0.1 0.4 0.2
v 0.2 0.4 0.2
v -0.3 0.4 0.1
v -0.2 0.4 0.1
v -0.1 0.4 0.1
v 0.2 0.4 0.1
v 0.3 0.4 0.1
v -0.5 0.4 -2.98023e-08
v -0.4 0.4 -2.98023e-08
v -0.3 0.4 -2.98023e-08
v -0.2 0.4 -2.98023e-08
v 0.2 0.4 -2.98023e-08
v 0.3 0.4 -2.98023e-08
v 0.4 0.4 -2.98023e-08
v -0.5 0.4 -0.1
v -0.4 0.4 -0.1
v -0.3 0.4 -0.1
v 0.3 0.4 -0.1
v 0.4 0.4 -0.1
v -0.3 0.4 -0.2
v -0.2 0.4 -0.2
v -0.1 0.4 -0.2
v 0 0.4 -0.2
v 0.2 0.4 -0.2
v -0.3 0.4 -0.3
v -0.2 0.4 -0.3
v -0.1 0.4 -0.3
v 0 0.4 -0.3
v 0.1 0.4 -0.3
v 0.3 0.4 -0.3
v -0.1 0.4 -0.4
v 0 0.4 -0.4
v -0.1 0.4 -0.5
v 0 0.4 -0.5
v -0.1 0.5 0.2
v 0 0.5 0.2
v 0.1 0.5 0.2
v -0.1 0.5 0.1
v 0 0.5 0.1
v 0.1 0.5 0.1
v -0.4 0.5 -2.98023e-08
v -0.3 0.5 -2.98023e-08
v 0.4 0.5 -2.98023e-08
v 0.5 0.5 -2.98023e-08
v -0.4 0.5 -0.1
v -0.3 0.5 -0.1
v 0.4 0.5 -0.1
v 0.5 0.5 -0.1
v -0.1 0.5 -0.2
v 0 0.5 -0.2
v 0 0.5 -0.3
v 0.1 0.5 -0.3
v -0.1 0.5 -0.4
v 0 0.5 -0.4
v 0.1 0.5 -0.4
v 0.2 0.5 -0.4
v 0.3 0.5 -0.4
v 0.7 0.5 -0.4
v 0.8 0.5 -0.4
v 0 0.5 -0.5
v 0.3 0.5 -0.5
v 0.7 0.5 -0.5
v 0.8 0.5 -0.5
v 0.1 0.6 -0.3
v 0.2 0.6 -0.3
v 0.1 0.6 -0.4
v 0.2 0.6 -0.4
v 0.3 0.6 -0.4
v 0.4 0.6 -0.4
v 0.3 0.6 -0.5
v 0.4 0.6 -0.5
v 0.2 0.7 0.3
v 0.3 0.7 0.3
v -0.2 0.7 0.2
v -0.1 0.7 0.2
v 0.1 0.7 0.2
v 0.2 0.7 0.2
v 0.3 0.7 0.2
v 0.4 0.7 0.2
v -0.2 0.7 0.1
v -0.1 0.7 0.1
v 0.1 0.7 0.1
v 0.2 0.7 0.1
v 0.3 0.7 0.1
v 0.4 0.7 0.1
v 0.2 0.7 -2.98023e-08
v 0.3 0.7 -2.98023e-08
v 0.4 0.7 -0.2
v 0.5 0.7 -0.2
v 0.4 0.7 -0.3
v 0.5 0.7 -0.3
v 0.4 0.7 -0.4
v 0.5 0.7 -0.4
v 0.7 0.7 -0.4
v 0.8 0.7 -0.4
v 0.4 0.7 -0.5
v 0.5 0.7 -0.5
v 0.7 0.7 -0.5
v 0.8 0.7 -0.5
v -0.4 0.8 0.1
v -0.3 0.8 0.1
v 0.3 0.8 0.1
v 0.4 0.8 0.1
v -0.4 0.8 -2.98023e-08
v -0.3 0.8 -2.98023e-08
v -0.4 0.8 -0.1
v -0.3 0.8 -0.1
v 0.3 0.8 -0.1
v 0.4 0.8 -0.1
v -0.4 0.8 -0.2
v -0.3 0.8 -0.2
v -0.2 0.8 -0.2
v -0.3 0.8 -0.3
v -0.2 0.8 -0.3
v 0.5 0.8 -0.4
v 0.7 0.8 -0.4
v 0.5 0.8 -0.5
v 0.7 0.8 -0.5
v 0.3 0.9 -0.1
v 0.4 0.9 -0.1
v 0.3 0.9 -0.2
v 0.4 0.9 -0.2
v 0.2 0.9 -0.3
v 0.3 0.9 -0.3
v 0.2 0.9 -0.4
v 0.3 0.9 -0.4
v -0.3 1 0.2
v -0.2 1 0.2
v 0.1 1 0.2
v 0.2 1 0.2
v -0.3 1 0.1
v -0.2 1 0.1
v 0.1 1 0.1
v 0.2 1 0.1
v 0.2 1 -0.2
v 0.3 1 -0.2
v 0.2 1 -0.3
v 0.3 1 -0.3
v -0.4 1.1 -2.98023e-08
v -0.3 1.1 -2.98023e-08
v -0.4 1.1 -0.2
v -0.3 1.1 -0.2
v -0.3 1.1 -0.3
v -0.2 1.1 -0.3
v 0.1 1.1 -0.3
v 0.2 1.1 -0.3
v -0.3 1.1 -0.4
v -0.2 1.1 -0.4
v 0.1 1.1 -0.4
v 0.2 1.1 -0.4
v -0.3 1.2 0.2
v 0.3 1.2 0.2
v -0.2 1.2 0.1
v 0.2 1.2 0.1
v -0.3 1.2 -2.98023e-08
v -0.2 1.2 -2.98023e-08
v 0.2 1.2 -2.98023e-08
v 0.3 1.2 -2.98023e-08
v -0.3 1.2 -0.1
v -0.2 1.2 -0.1
v 0.2 1.2 -0.1
v 0.3 1.2 -0.1
v -0.2 1.2 -0.2
v 0.2 1.2 -0.2
v -0.3 1.2 -0.3
v -0.2 1.2 -0.3
v 0.1 1.2 -0.3
v 0.3 1.2 -0.3
v -0.2 1.2 -0.4
v 0.1 1.2 -0.4
v -0.2 1.3 0.1
v 0.2 1.3 0.1
v -0.2 1.3 -2.98023e-08
v 0.2 1.3 -2.98023e-08
v -0.2 1.3 -0.1
v 0.2 1.3 -0.1
v -0.2 1.3 -0.2
v 0.2 1.3 -0.2
v -0.3 1.4 -2.98023e-08
v -0.2 1.4 -2.98023e-08
v 0.2 1.4 -2.98023e-08
v 0.3 1.4 -2.98023e-08
v -0.3 1.4 -0.1
v -0.2 1.4 -0.1
v 0.2 1.4 -0.1
v 0.3 1.4 -0.1
v -0.4 1.5 -2.98023e-08
v -0.3 1.5 -2.98023e-08
v 0.3 1.5 -2.98023e-08
v 0.4 1.5 -2.98023e-08
v -0.4 1.5 -0.1
v -0.3 1.5 -0.1
v 0.3 1.5 -0.1
v 0.4 1.5 -0.1

# faces
f 3/11/1 2/11/1 1/11/1
f 4/11/1 2/11/1 3/11/1
f 7/11/1 6/11/1 5/11/1
f 8/11/1 6/11/1 7/11/1
f 12/12/1 10/12/1 9/12/1
f 13/12/1 10/12/1 12/12/1
f 15/12/1 13/12/1 12/12/1
f 15/12/1 14/12/1 13/12/1
f 15/12/1 12/12/1 11/12/1
f 16/12/1 14/12/1 15/12/1
f 17/12/1 14/12/1 16/12/1
f 18/12/1 14/12/1 17/12/1
f 19/12/1 17/12/1 16/12/1
f 21/12/1 19/12/1 16/12/1
f 21/12/1 20/12/1 19/12/1
f 22/12/1 20/12/1 21/12/1
f 25/12/1 24/12/1 23/12/1
f 26/12/1 24/12/1 25/12/1
f 32/5/1 28/5/1 27/5/1
f 33/4/1 29/4/1 28/4/1
f 33/5/1 28/5/1 32/5/1
f 34/4/1 29/4/1 33/4/1
f 35/4/1 31/4/1 30/4/1
f 36/4/1 33/4/1 32/4/1
f 37/5/1 34/5/1 33/5/1
f 37/4/1 33/4/1 36/4/1
f 38/4/1 35/4/1 34/4/1
f 38/5/1 34/5/1 37/5/1
f 39/4/1 31/4/1 35/4/1
f 39/4/1 35/4/1 38/4/1
f 40/4/1 31/4/1 39/4/1
f 41/5/1 37/5/1 36/5/1
f 42/4/1 38/4/1 37/4/1
f 42/5/1 37/5/1 41/5/1
f 42/4/1 39/4/1 38/4/1
f 43/4/1 39/4/1 42/4/1
f 44/4/1 39/4/1 43/4/1
f 45/5/1 40/5/1 39/5/1
f 45/4/1 39/4/1 44/4/1
f 46/5/1 40/5/1 45/5/1
f 50/12/1 48/12/1 47/12/1
f 50/11/1 49/11/1 48/11/1
f 51/11/1 49/11/1 50/11/1
f 54/12/1 50/12/1 47/12/1
f 55/12/1 50/12/1 54/12/1
f 56/12/1 52/12/1 51/12/1
f 57/12/1 52/12/1 56/12/1
f 59/12/1 54/12/1 53/12/1
f 62/12/1 58/12/1 57/12/1
f 63/12/1 58/12/1 62/12/1
f 64/12/1 62/12/1 61/12/1
f 65/12/1 62/12/1 64/12/1
f 67/12/1 60/12/1 59/12/1
f 67/12/1 59/12/1 53/12/1
f 68/12/1 60/12/1 67/12/1
f 69/12/1 66/12/1 65/12/1
f 72/12/1 60/12/1 68/12/1
f 73/12/1 60/12/1 72/12/1
f 74/12/1 69/12/1 65/12/1
f 74/12/1 70/12/1 69/12/1
f 75/12/1 70/12/1 74/12/1
f 76/12/1 70/12/1 75/12/1
f 77/12/1 73/12/1 72/12/1
f 77/12/1 72/12/1 71/12/1
f 77/12/1 75/12/1 74/12/1
f 77/12/1 74/12/1 73/12/1
f 78/12/1 75/12/1 77/12/1
f 79/12/1 75/12/1 78/12/1
f 80/12/1 75/12/1 79/12/1
f 81/12/1 79/12/1 78/12/1
f 82/12/1 79/12/1 81/12/1
f 85/7/1 84/7/1 83/7/1
f 86/7/1 84/7/1 85/7/1
f 87/11/1 86/11/1 85/11/1
f 88/11/1 86/11/1 87/11/1
f 92/5/1 90/5/1 89/5/1
f 93/4/1 91/4/1 90/4/1
f 93/5/1 90/5/1 92/5/1
f 94/4/1 91/4/1 93/4/1
f 97/4/1 91/4/1 94/4/1
f 98/4/1 91/4/1 97/4/1
f 100/12/1 96/12/1 95/12/1
f 101/12/1 96/12/1 100/12/1
f 102/12/1 99/12/1 98/12/1
f 103/12/1 99/12/1 102/12/1
f 106/12/1 104/12/1 103/12/1
f 107/12/1 106/12/1 105/12/1
f 108/12/1 104/12/1 106/12/1
f 108/12/1 106/12/1 107/12/1
f 111/12/1 104/12/1 108/12/1
f 112/12/1 104/12/1 111/12/1
f 113/12/1 110/12/1 109/12/1
f 114/12/1 110/12/1 113/12/1
f 121/12/1 116/12/1 115/12/1
f 122/12/1 116/12/1 121/12/1
f 123/12/1 118/12/1 117/12/1
f 124/12/1 118/12/1 123/12/1
f 125/12/1 120/12/1 119/12/1
f 126/12/1 120/12/1 125/12/1
f 129/6/1 128/6/1 127/6/1
f 130/6/1 128/6/1 129/6/1
f 136/3/1 132/3/1 131/3/1
f 137/3/1 132/3/1 136/3/1
f 138/3/1 132/3/1 137/3/1
f 139/5/1 134/5/1 133/5/1
f 140/5/1 134/5/1 139/5/1
f 141/3/1 136/3/1 135/3/1
f 141/3/1 137/3/1 136/3/1
f 142/3/1 137/3/1 141/3/1
f 145/12/1 144/12/1 143/12/1
f 146/12/1 144/12/1 145/12/1
f 149/12/1 148/12/1 147/12/1
f 150/12/1 148/12/1 149/12/1
f 157/6/1 152/6/1 151/6/1
f 158/6/1 152/6/1 157/6/1
f 159/6/1 154/6/1 153/6/1
f 160/6/1 154/6/1 159/6/1
f 161/3/1 156/3/1 155/3/1
f 162/3/1 156/3/1 161/3/1
f 165/3/1 164/3/1 163/3/1
f 166/3/1 164/3/1 165/3/1
f 169/7/1 168/7/1 167/7/1
f 170/7/1 168/7/1 169/7/1
f 171/11/1 170/11/1 169/11/1
f 172/11/1 170/11/1 171/11/1
f 175/1/1 172/1/1 171/1/1
f 176/1/1 172/1/1 175/1/1
f 177/12/1 174/12/1 173/12/1
f 178/12/1 174/12/1 177/12/1
f 184/12/1 180/12/1 179/12/1
f 185/6/1 182/6/1 181/6/1
f 186/12/1 183/12/1 182/12/1
f 186/6/1 182/6/1 185/6/1
f 187/12/1 183/12/1 186/12/1
f 188/12/1 184/12/1 179/12/1
f 189/12/1 184/12/1 188/12/1
f 192/12/1 191/12/1 190/12/1
f 193/12/1 191/12/1 192/12/1
f 196/6/1 195/6/1 194/6/1
f 197/6/1 195/6/1 196/6/1
f 202/12/1 199/12/1 198/12/1
f 203/12/1 199/12/1 202/12/1
f 205/12/1 201/12/1 200/12/1
f 206/12/1 201/12/1 205/12/1
f 207/12/1 204/12/1 203/12/1
f 208/12/1 207/12/1 203/12/1
f 209/12/1 207/12/1 208/12/1
f 212/12/1 211/12/1 210/12/1
f 213/12/1 211/12/1 212/12/1
f 216/12/1 215/12/1 214/12/1
f 217/12/1 215/12/1 216/12/1
f 222/11/1 219/11/1 218/11/1
f 223/11/1 219/11/1 222/11/1
f 224/3/1 221/3/1 220/3/1
f 225/3/1 221/3/1 224/3/1
f 228/12/1 227/12/1 226/12/1
f 229/12/1 227/12/1 228/12/1
f 232/12/1 231/12/1 230/12/1
f 233/12/1 231/12/1 232/12/1
f 236/11/1 235/11/1 234/11/1
f 237/11/1 235/11/1 236/11/1
f 242/12/1 239/12/1 238/12/1
f 243/12/1 239/12/1 242/12/1
f 244/3/1 241/3/1 240/3/1
f 245/3/1 241/3/1 244/3/1
f 248/3/1 247/3/1 246/3/1
f 249/3/1 247/3/1 248/3/1
f 252/3/1 251/3/1 250/3/1
f 253/3/1 251/3/1 252/3/1
f 254/11/2 255/11/2 256/11/2
f 256/11/2 255/11/2 257/11/2
f 258/11/2 259/11/2 260/11/2
f 260/11/2 259/11/2 261/11/2
f 262/12/2 263/12/2 264/12/2
f 264/12/2 263/12/2 265/12/2
f 266/5/2 267/5/2 271/5/2
f 267/4/2 268/4/2 272/4/2
f 271/5/2 267/5/2 272/5/2
f 272/4/2 268/4/2 273/4/2
f 269/4/2 270/4/2 274/4/2
f 274/4/2 270/4/2 275/4/2
f 272/5/2 273/5/2 276/5/2
f 276/5/2 273/5/2 277/5/2
f 278/12/2 279/12/2 280/12/2
f 278/12/2 280/12/2 281/12/2
f 278/12/2 281/12/2 282/12/2
f 282/12/2 281/12/2 283/12/2
f 284/12/2 285/12/2 286/12/2
f 286/12/2 285/12/2 287/12/2
f 288/7/2 289/7/2 290/7/2
f 290/7/2 289/7/2 291/7/2
f 290/11/2 291/11/2 296/11/2
f 296/11/2 291/11/2 297/11/2
f 292/4/2 293/4/2 298/4/2
f 298/4/2 293/4/2 299/4/2
f 294/4/2 295/4/2 300/4/2
f 300/4/2 295/4/2 301/4/2
f 296/4/2 297/4/2 302/4/2
f 297/4/2 298/4/2 302/4/2
f 302/4/2 298/4/2 303/4/2
f 304/12/2 305/12/2 306/12/2
f 306/12/2 305/12/2 307/12/2
f 308/6/2 309/6/2 310/6/2
f 310/6/2 309/6/2 311/6/2
f 312/3/2 313/3/2 314/3/2
f 314/3/2 313/3/2 315/3/2
f 316/12/2 317/12/2 318/12/2
f 316/12/2 318/12/2 319/12/2
f 319/12/2 318/12/2 320/12/2
f 321/4/2 322/4/2 323/4/2
f 323/4/2 322/4/2 324/4/2
f 324/3/2 325/3/2 326/3/2
f 326/3/2 325/3/2 327/3/2
f 327/3/2 325/3/2 328/3/2
f 329/12/2 330/12/2 331/12/2
f 331/12/2 330/12/2 332/12/2
f 333/12/2 334/12/2 335/12/2
f 335/12/2 334/12/2 336/12/2
f 337/7/2 338/7/2 339/7/2
f 339/7/2 338/7/2 340/7/2
f 339/11/2 340/11/2 343/11/2
f 343/11/2 340/11/2 344/11/2
f 341/6/2 342/6/2 346/6/2
f 346/6/2 342/6/2 347/6/2
f 345/12/2 346/12/2 348/12/2
f 348/12/2 346/12/2 349/12/2
f 350/12/2 351/12/2 353/12/2
f 351/6/2 352/6/2 354/6/2
f 353/12/2 351/12/2 354/12/2
f 354/6/2 352/6/2 355/6/2
f 354/6/2 355/6/2 358/6/2
f 355/6/2 356/6/2 358/6/2
f 356/12/2 357/12/2 359/12/2
f 358/6/2 356/6/2 359/6/2
f 359/12/2 357/12/2 360/12/2
f 361/10/2 362/10/2 363/10/2
f 363/10/2 362/10/2 364/10/2
f 365/12/2 366/12/2 368/12/2
f 367/12/2 368/12/2 369/12/2
f 368/12/2 366/12/2 370/12/2
f 369/12/2 368/12/2 370/12/2
f 370/12/2 366/12/2 371/12/2
f 372/12/2 373/12/2 376/12/2
f 376/12/2 373/12/2 377/12/2
f 374/12/2 375/12/2 378/12/2
f 378/12/2 375/12/2 379/12/2
f 380/6/2 381/6/2 385/6/2
f 385/6/2 381/6/2 386/6/2
f 386/6/2 381/6/2 387/6/2
f 387/6/2 381/6/2 388/6/2
f 382/3/2 383/3/2 390/3/2
f 390/3/2 383/3/2 391/3/2
f 384/6/2 385/6/2 392/6/2
f 385/6/2 386/6/2 392/6/2
f 392/6/2 386/6/2 393/6/2
f 393/6/2 386/6/2 394/6/2
f 388/6/2 389/6/2 395/6/2
f 387/6/2 388/6/2 395/6/2
f 395/6/2 389/6/2 396/6/2
f 392/12/2 393/12/2 397/12/2
f 392/12/2 397/12/2 400/12/2
f 397/12/2 398/12/2 400/12/2
f 400/12/2 398/12/2 401/12/2
f 399/12/2 400/12/2 404/12/2
f 404/12/2 400/12/2 405/12/2
f 405/12/2 406/12/2 407/12/2
f 407/12/2 408/12/2 409/12/2
f 402/12/2 403/12/2 410/12/2
f 410/12/2 403/12/2 411/12/2
f 411/12/2 403/12/2 412/12/2
f 409/12/2 410/12/2 413/12/2
f 410/12/2 411/12/2 413/12/2
f 413/12/2 411/12/2 414/12/2
f 409/12/2 413/12/2 415/12/2
f 407/12/2 409/12/2 417/12/2
f 415/12/2 416/12/2 417/12/2
f 409/12/2 415/12/2 417/12/2
f 405/12/2 407/12/2 417/12/2
f 417/12/2 416/12/2 418/12/2
f 418/12/2 416/12/2 419/12/2
f 419/12/2 416/12/2 420/12/2
f 418/12/2 419/12/2 421/12/2
f 421/12/2 419/12/2 422/12/2
f 423/11/2 424/11/2 427/11/2
f 427/11/2 424/11/2 428/11/2
f 425/3/2 426/3/2 429/3/2
f 429/3/2 426/3/2 430/3/2
f 431/11/2 432/11/2 434/11/2
f 434/11/2 432/11/2 435/11/2
f 433/12/2 434/12/2 437/12/2
f 435/12/2 436/12/2 437/12/2
f 434/12/2 435/12/2 437/12/2
f 437/12/2 436/12/2 438/12/2
f 438/12/2 436/12/2 439/12/2
f 438/12/2 439/12/2 440/12/2
f 440/12/2 439/12/2 441/12/2
f 441/12/2 439/12/2 442/12/2
f 442/12/2 439/12/2 443/12/2
f 444/12/2 445/12/2 446/12/2
f 446/12/2 445/12/2 447/12/2
f 448/11/2 449/11/2 450/11/2
f 450/11/2 449/11/2 451/11/2
f 452/12/2 453/12/2 454/12/2
f 454/12/2 453/12/2 455/12/2
f 456/3/2 457/3/2 458/3/2
f 458/3/2 457/3/2 459/3/2
f 460/12/2 461/12/2 462/12/2
f 462/12/2 461/12/2 463/12/2
f 464/3/2 465/3/2 466/3/2
f 466/3/2 465/3/2 467/3/2
f 468/12/2 469/12/2 470/12/2
f 470/12/2 469/12/2 471/12/2
f 472/12/2 473/12/2 474/12/2
f 474/12/2 473/12/2 475/12/2
f 478/12/3 477/12/3 476/12/3
f 479/12/3 477/12/3 478/12/3
f 482/12/3 481/12/3 480/12/3
f 483/12/3 481/12/3 482/12/3
f 492/5/3 485/5/3 484/5/3
f 493/4/3 486/4/3 485/4/3
f 493/5/3 485/5/3 492/5/3
f 494/5/3 487/5/3 486/5/3
f 494/4/3 486/4/3 493/4/3
f 495/5/3 487/5/3 494/5/3
f 497/12/3 489/12/3 488/12/3
f 498/12/3 489/12/3 497/12/3
f 499/12/3 491/12/3 490/12/3
f 500/4/3 495/4/3 494/4/3
f 500/4/3 494/4/3 493/4/3
f 501/4/3 495/4/3 500/4/3
f 502/4/3 495/4/3 501/4/3
f 504/12/3 497/12/3 496/12/3
f 505/12/3 497/12/3 504/12/3
f 507/12/3 499/12/3 498/12/3
f 509/6/3 502/6/3 501/6/3
f 510/5/3 503/5/3 502/5/3
f 510/6/3 502/6/3 509/6/3
f 511/5/3 503/5/3 510/5/3
f 512/12/3 507/12/3 506/12/3
f 513/12/3 491/12/3 499/12/3
f 513/12/3 507/12/3 512/12/3
f 513/12/3 499/12/3 507/12/3
f 514/6/3 509/6/3 508/6/3
f 514/6/3 510/6/3 509/6/3
f 515/12/3 511/12/3 510/12/3
f 515/6/3 510/6/3 514/6/3
f 516/12/3 511/12/3 515/12/3
f 520/6/3 514/6/3 508/6/3
f 521/6/3 514/6/3 520/6/3
f 522/12/3 517/12/3 516/12/3
f 522/12/3 516/12/3 515/12/3
f 523/12/3 517/12/3 522/12/3
f 524/12/3 517/12/3 523/12/3
f 525/12/3 519/12/3 518/12/3
f 526/12/3 519/12/3 525/12/3
f 527/12/3 491/12/3 513/12/3
f 528/6/3 522/6/3 521/6/3
f 529/12/3 523/12/3 522/12/3
f 529/6/3 522/6/3 528/6/3
f 530/12/3 523/12/3 529/12/3
f 531/12/3 527/12/3 526/12/3
f 531/12/3 526/12/3 525/12/3
f 531/12/3 525/12/3 524/12/3
f 532/12/3 491/12/3 527/12/3
f 532/12/3 527/12/3 531/12/3
f 533/12/3 531/12/3 530/12/3
f 534/12/3 531/12/3 533/12/3
f 538/12/3 536/12/3 535/12/3
f 539/12/3 536/12/3 538/12/3
f 543/12/3 538/12/3 537/12/3
f 544/12/3 538/12/3 543/12/3
f 545/12/3 538/12/3 544/12/3
f 548/12/3 541/12/3 540/12/3
f 549/12/3 541/12/3 548/12/3
f 554/5/3 543/5/3 542/5/3
f 555/4/3 544/4/3 543/4/3
f 555/5/3 543/5/3 554/5/3
f 556/4/3 544/4/3 555/4/3
f 557/10/3 546/10/3 545/10/3
f 558/13/3 547/13/3 546/13/3
f 558/10/3 546/10/3 557/10/3
f 559/12/3 548/12/3 547/12/3
f 559/13/3 547/13/3 558/13/3
f 560/12/3 548/12/3 559/12/3
f 561/6/3 553/6/3 552/6/3
f 562/6/3 553/6/3 561/6/3
f 563/4/3 557/4/3 556/4/3
f 563/4/3 556/4/3 555/4/3
f 564/4/3 557/4/3 563/4/3
f 565/11/3 558/11/3 557/11/3
f 565/4/3 557/4/3 564/4/3
f 565/11/3 559/11/3 558/11/3
f 566/11/3 559/11/3 565/11/3
f 569/4/3 564/4/3 563/4/3
f 570/5/3 565/5/3 564/5/3
f 570/4/3 564/4/3 569/4/3
f 571/11/3 567/11/3 566/11/3
f 571/5/3 565/5/3 570/5/3
f 571/11/3 566/11/3 565/11/3
f 572/11/3 567/11/3 571/11/3
f 573/11/3 567/11/3 572/11/3
f 574/12/3 568/12/3 567/12/3
f 574/11/3 567/11/3 573/11/3
f 577/10/3 572/10/3 571/10/3
f 578/13/3 573/13/3 572/13/3
f 578/10/3 572/10/3 577/10/3
f 579/13/3 573/13/3 578/13/3
f 580/12/3 568/12/3 574/12/3
f 581/12/3 568/12/3 580/12/3
f 582/12/3 551/12/3 550/12/3
f 583/12/3 551/12/3 582/12/3
f 584/6/3 576/6/3 575/6/3
f 585/6/3 576/6/3 584/6/3
f 588/12/3 587/12/3 586/12/3
f 589/12/3 587/12/3 588/12/3
f 592/11/3 591/11/3 590/11/3
f 593/11/3 591/11/3 592/11/3
f 601/11/3 594/11/3 593/11/3
f 602/11/3 594/11/3 601/11/3
f 603/12/3 596/12/3 595/12/3
f 604/12/3 596/12/3 603/12/3
f 605/12/3 598/12/3 597/12/3
f 606/12/3 598/12/3 605/12/3
f 608/12/3 600/12/3 599/12/3
f 609/12/3 600/12/3 608/12/3
f 610/12/3 600/12/3 609/12/3
f 615/12/3 609/12/3 608/12/3
f 615/12/3 608/12/3 607/12/3
f 616/12/3 609/12/3 615/12/3
f 617/12/3 609/12/3 616/12/3
f 618/7/3 612/7/3 611/7/3
f 619/11/3 613/11/3 612/11/3
f 619/7/3 612/7/3 618/7/3
f 620/4/3 614/4/3 613/4/3
f 620/11/3 613/11/3 619/11/3
f 621/4/3 614/4/3 620/4/3
f 626/7/3 623/7/3 622/7/3
f 627/11/3 624/11/3 623/11/3
f 627/7/3 623/7/3 626/7/3
f 628/1/3 625/1/3 624/1/3
f 628/11/3 624/11/3 627/11/3
f 629/1/3 625/1/3 628/1/3
f 639/12/3 631/12/3 630/12/3
f 640/12/3 631/12/3 639/12/3
f 641/12/3 634/12/3 633/12/3
f 641/12/3 633/12/3 632/12/3
f 642/12/3 634/12/3 641/12/3
f 643/12/3 634/12/3 642/12/3
f 645/11/3 636/11/3 635/11/3
f 646/11/3 636/11/3 645/11/3
f 647/11/3 638/11/3 637/11/3
f 648/11/3 638/11/3 647/11/3
f 649/12/3 644/12/3 643/12/3
f 649/12/3 643/12/3 642/12/3
f 650/12/3 644/12/3 649/12/3
f 651/11/3 647/11/3 646/11/3
f 652/11/3 647/11/3 651/11/3
f 655/4/3 654/4/3 653/4/3
f 656/4/3 654/4/3 655/4/3
f 659/6/3 658/6/3 657/6/3
f 660/6/3 658/6/3 659/6/3
f 663/12/3 662/12/3 661/12/3
f 664/12/3 662/12/3 663/12/3
f 667/4/3 666/4/3 665/4/3
f 668/4/3 666/4/3 667/4/3
f 670/5/3 669/5/3 668/5/3
f 671/5/3 669/5/3 670/5/3
f 674/12/3 673/12/3 672/12/3
f 675/12/3 673/12/3 674/12/3
f 678/3/3 677/3/3 676/3/3
f 679/3/3 677/3/3 678/3/3
f 682/3/3 681/3/3 680/3/3
f 684/3/3 683/3/3 682/3/3
f 685/3/3 682/3/3 680/3/3
f 685/3/3 684/3/3 682/3/3
f 686/3/3 684/3/3 685/3/3
f 687/3/3 684/3/3 686/3/3
f 689/3/3 687/3/3 686/3/3
f 689/3/3 688/3/3 687/3/3
f 690/3/3 688/3/3 689/3/3
f 691/3/3 688/3/3 690/3/3
f 694/3/3 692/3/3 691/3/3
f 694/3/3 691/3/3 690/3/3
f 695/3/3 692/3/3 694/3/3
f 696/3/3 692/3/3 695/3/3
f 697/3/3 692/3/3 696/3/3
f 699/3/3 694/3/3 693/3/3
f 699/3/3 695/3/3 694/3/3
f 700/12/3 696/12/3 695/12/3
f 700/3/3 695/3/3 699/3/3
f 701/3/3 698/3/3 697/3/3
f 701/12/3 696/12/3 700/12/3
f 701/3/3 697/3/3 696/3/3
f 702/3/3 698/3/3 701/3/3
f 703/3/3 699/3/3 693/3/3
f 704/12/3 700/12/3 699/12/3
f 704/3/3 699/3/3 703/3/3
f 704/12/3 701/12/3 700/12/3
f 704/12/3 702/12/3 701/12/3
f 705/12/3 702/12/3 704/12/3
f 706/12/3 702/12/3 705/12/3
f 707/3/3 698/3/3 702/3/3
f 707/12/3 702/12/3 706/12/3
f 708/3/3 698/3/3 707/3/3
f 709/12/3 705/12/3 704/12/3
f 710/12/3 705/12/3 709/12/3
f 711/12/3 707/12/3 706/12/3
f 712/12/3 707/12/3 711/12/3
f 713/4/4 714/4/4 715/4/4
f 715/4/4 714/4/4 716/4/4
f 717/6/4 718/6/4 719/6/4
f 719/6/4 718/6/4 720/6/4
f 721/12/4 722/12/4 725/12/4
f 725/12/4 722/12/4 726/12/4
f 723/12/4 724/12/4 727/12/4
f 727/12/4 724/12/4 728/12/4
f 729/4/4 730/4/4 731/4/4
f 731/4/4 730/4/4 732/4/4
f 733/6/4 734/6/4 735/6/4
f 735/6/4 734/6/4 736/6/4
f 737/12/4 738/12/4 739/12/4
f 739/12/4 738/12/4 740/12/4
f 741/11/4 742/11/4 743/11/4
f 743/11/4 742/11/4 744/11/4
f 744/11/4 745/11/4 752/11/4
f 752/11/4 745/11/4 753/11/4
f 746/12/4 747/12/4 754/12/4
f 754/12/4 747/12/4 755/12/4
f 748/12/4 749/12/4 756/12/4
f 756/12/4 749/12/4 757/12/4
f 750/12/4 751/12/4 759/12/4
f 759/12/4 751/12/4 760/12/4
f 760/12/4 751/12/4 761/12/4
f 753/11/4 754/11/4 765/11/4
f 765/11/4 754/11/4 766/11/4
f 759/12/4 760/12/4 767/12/4
f 758/12/4 759/12/4 767/12/4
f 767/12/4 760/12/4 768/12/4
f 768/12/4 760/12/4 769/12/4
f 762/7/4 763/7/4 770/7/4
f 763/11/4 764/11/4 771/11/4
f 770/7/4 763/7/4 771/7/4
f 771/11/4 764/11/4 772/11/4
f 773/7/4 774/7/4 776/7/4
f 774/11/4 775/11/4 777/11/4
f 776/7/4 774/7/4 777/7/4
f 777/11/4 775/11/4 778/11/4
f 780/12/4 781/12/4 786/12/4
f 779/12/4 780/12/4 786/12/4
f 786/12/4 781/12/4 787/12/4
f 787/12/4 781/12/4 788/12/4
f 782/11/4 783/11/4 790/11/4
f 790/11/4 783/11/4 791/11/4
f 784/11/4 785/11/4 792/11/4
f 792/11/4 785/11/4 793/11/4
f 787/12/4 788/12/4 794/12/4
f 788/12/4 789/12/4 794/12/4
f 794/12/4 789/12/4 795/12/4
f 791/11/4 792/11/4 796/11/4
f 796/11/4 792/11/4 797/11/4
f 798/12/4 799/12/4 803/12/4
f 803/12/4 799/12/4 804/12/4
f 800/12/4 801/12/4 805/12/4
f 805/12/4 801/12/4 806/12/4
f 802/12/4 803/12/4 808/12/4
f 808/12/4 803/12/4 809/12/4
f 804/12/4 805/12/4 810/12/4
f 810/12/4 805/12/4 811/12/4
f 807/4/4 808/4/4 814/4/4
f 814/4/4 808/4/4 815/4/4
f 815/4/4 808/4/4 816/4/4
f 815/5/4 816/5/4 818/5/4
f 818/5/4 816/5/4 821/5/4
f 817/6/4 818/6/4 821/6/4
f 821/5/4 816/5/4 822/5/4
f 817/6/4 821/6/4 823/6/4
f 823/6/4 821/6/4 824/6/4
f 812/12/4 813/12/4 827/12/4
f 827/12/4 813/12/4 828/12/4
f 819/6/4 820/6/4 829/6/4
f 829/6/4 820/6/4 830/6/4
f 825/12/4 826/12/4 833/12/4
f 833/12/4 826/12/4 834/12/4
f 831/12/4 832/12/4 835/12/4
f 835/12/4 832/12/4 836/12/4
f 836/12/4 832/12/4 837/12/4
f 838/4/4 839/4/4 847/4/4
f 839/5/4 840/5/4 847/5/4
f 847/5/4 840/5/4 848/5/4
f 841/12/4 842/12/4 850/12/4
f 850/12/4 842/12/4 851/12/4
f 843/12/4 844/12/4 852/12/4
f 852/12/4 844/12/4 853/12/4
f 845/12/4 846/12/4 854/12/4
f 854/12/4 846/12/4 855/12/4
f 847/4/4 848/4/4 856/4/4
f 838/4/4 847/4/4 856/4/4
f 856/4/4 848/4/4 857/4/4
f 857/4/4 848/4/4 858/4/4
f 858/4/4 848/4/4 859/4/4
f 849/12/4 850/12/4 860/12/4
f 860/12/4 850/12/4 861/12/4
f 857/5/4 858/5/4 862/5/4
f 862/5/4 858/5/4 863/5/4
f 862/4/4 863/4/4 864/4/4
f 864/4/4 863/4/4 865/4/4
f 867/12/4 868/12/4 871/12/4
f 871/12/4 868/12/4 872/12/4
f 869/12/4 870/12/4 875/12/4
f 865/6/4 866/6/4 876/6/4
f 876/6/4 866/6/4 877/6/4
f 873/12/4 874/12/4 878/12/4
f 878/12/4 874/12/4 879/12/4
f 875/12/4 870/12/4 880/12/4
f 880/12/4 870/12/4 881/12/4
f 882/12/4 883/12/4 884/12/4
f 884/12/4 883/12/4 885/12/4
f 886/12/4 887/12/4 889/12/4
f 889/12/4 887/12/4 890/12/4
f 888/12/4 889/12/4 895/12/4
f 889/12/4 890/12/4 895/12/4
f 890/12/4 891/12/4 895/12/4
f 892/3/4 893/3/4 896/3/4
f 896/3/4 893/3/4 897/3/4
f 894/12/4 895/12/4 899/12/4
f 895/12/4 891/12/4 900/12/4
f 899/12/4 895/12/4 900/12/4
f 900/12/4 891/12/4 901/12/4
f 901/12/4 891/12/4 902/12/4
f 898/12/4 899/12/4 903/12/4
f 903/12/4 899/12/4 904/12/4
f 900/12/4 901/12/4 905/12/4
f 905/12/4 901/12/4 906/12/4
f 906/12/4 901/12/4 907/12/4
f 904/12/4 905/12/4 908/12/4
f 905/12/4 906/12/4 908/12/4
f 908/12/4 906/12/4 909/12/4
f 910/3/4 911/3/4 913/3/4
f 913/3/4 911/3/4 914/3/4
f 912/3/4 913/3/4 916/3/4
f 914/3/4 915/3/4 916/3/4
f 913/3/4 914/3/4 916/3/4
f 916/3/4 915/3/4 917/3/4
f 917/3/4 915/3/4 918/3/4
f 918/3/4 919/3/4 920/3/4
f 917/3/4 918/3/4 920/3/4
f 920/3/4 919/3/4 921/3/4
f 921/3/4 919/3/4 922/3/4
f 922/3/4 923/3/4 925/3/4
f 921/3/4 922/3/4 925/3/4
f 925/3/4 923/3/4 926/3/4
f 926/3/4 923/3/4 927/3/4
f 927/3/4 923/3/4 928/3/4
f 924/3/4 925/3/4 930/3/4
f 925/3/4 926/3/4 930/3/4
f 926/12/4 927/12/4 931/12/4
f 930/3/4 926/3/4 931/3/4
f 928/3/4 929/3/4 932/3/4
f 931/12/4 927/12/4 932/12/4
f 927/3/4 928/3/4 932/3/4
f 932/3/4 929/3/4 933/3/4
f 924/3/4 930/3/4 934/3/4
f 930/12/4 931/12/4 935/12/4
f 934/3/4 930/3/4 935/3/4
f 931/12/4 932/12/4 935/12/4
f 932/12/4 933/12/4 935/12/4
f 935/12/4 933/12/4 936/12/4
f 936/12/4 933/12/4 937/12/4
f 933/3/4 929/3/4 938/3/4
f 937/12/4 933/12/4 938/12/4
f 938/3/4 929/3/4 939/3/4
f 935/12/4 936/12/4 940/12/4
f 940/12/4 936/12/4 941/12/4
f 937/12/4 938/12/4 942/12/4
f 942/12/4 938/12/4 943/12/4
f 948/7/5 945/7/5 944/7/5
f 949/7/5 945/7/5 948/7/5
f 950/7/5 947/7/5 946/7/5
f 951/7/5 947/7/5 950/7/5
f 954/5/5 953/5/5 952/5/5
f 955/5/5 953/5/5 954/5/5
f 956/4/5 955/4/5 954/4/5
f 957/4/5 955/4/5 956/4/5
f 960/4/5 959/4/5 958/4/5
f 962/4/5 960/4/5 958/4/5
f 962/4/5 961/4/5 960/4/5
f 963/4/5 961/4/5 962/4/5
f 968/4/5 965/4/5 964/4/5
f 969/4/5 965/4/5 968/4/5
f 970/6/5 967/6/5 966/6/5
f 971/6/5 967/6/5 970/6/5
f 975/6/5 970/6/5 969/6/5
f 976/6/5 970/6/5 975/6/5
f 977/6/5 972/6/5 971/6/5
f 978/4/5 974/4/5 973/4/5
f 979/4/5 974/4/5 978/4/5
f 983/6/5 972/6/5 977/6/5
f 984/4/5 980/4/5 979/4/5
f 985/4/5 980/4/5 984/4/5
f 986/6/5 982/6/5 981/6/5
f 986/6/5 983/6/5 982/6/5
f 987/6/5 983/6/5 986/6/5
f 988/6/5 972/6/5 983/6/5
f 988/6/5 983/6/5 987/6/5
f 989/5/5 986/5/5 985/5/5
f 990/4/5 987/4/5 986/4/5
f 990/5/5 986/5/5 989/5/5
f 991/4/5 987/4/5 990/4/5
f 994/3/5 993/3/5 992/3/5
f 995/3/5 993/3/5 994/3/5
f 1000/12/5 997/12/5 996/12/5
f 1001/12/5 997/12/5 1000/12/5
f 1004/6/5 999/6/5 998/6/5
f 1005/6/5 999/6/5 1004/6/5
f 1006/6/5 1002/6/5 1001/6/5
f 1007/6/5 1002/6/5 1006/6/5
f 1010/4/5 1004/4/5 1003/4/5
f 1011/4/5 1004/4/5 1010/4/5
f 1012/6/5 1006/6/5 1005/6/5
f 1013/6/5 1006/6/5 1012/6/5
f 1014/6/5 1006/6/5 1013/6/5
f 1017/11/5 1009/11/5 1008/11/5
f 1018/11/5 1009/11/5 1017/11/5
f 1019/6/5 1013/6/5 1012/6/5
f 1019/6/5 1012/6/5 1011/6/5
f 1020/6/5 1013/6/5 1019/6/5
f 1021/11/5 1016/11/5 1015/11/5
f 1022/11/5 1016/11/5 1021/11/5
f 1023/6/5 1019/6/5 1011/6/5
f 1024/6/5 1019/6/5 1023/6/5
f 1029/6/5 1026/6/5 1025/6/5
f 1030/6/5 1026/6/5 1029/6/5
f 1031/3/5 1028/3/5 1027/3/5
f 1031/3/5 1029/3/5 1028/3/5
f 1032/3/5 1029/3/5 1031/3/5
f 1037/3/5 1031/3/5 1027/3/5
f 1038/3/5 1031/3/5 1037/3/5
f 1039/3/5 1034/3/5 1033/3/5
f 1040/3/5 1034/3/5 1039/3/5
f 1041/3/5 1036/3/5 1035/3/5
f 1042/3/5 1036/3/5 1041/3/5
f 1047/11/5 1044/11/5 1043/11/5
f 1048/11/5 1044/11/5 1047/11/5
f 1049/11/5 1046/11/5 1045/11/5
f 1050/11/5 1046/11/5 1049/11/5
f 1055/3/5 1052/3/5 1051/3/5
f 1056/3/5 1052/3/5 1055/3/5
f 1057/12/5 1054/12/5 1053/12/5
f 1058/12/5 1054/12/5 1057/12/5
f 1063/12/5 1060/12/5 1059/12/5
f 1064/12/5 1060/12/5 1063/12/5
f 1065/12/5 1062/12/5 1061/12/5
f 1066/12/5 1062/12/5 1065/12/5
f 1068/11/5 1064/11/5 1063/11/5
f 1069/11/5 1064/11/5 1068/11/5
f 1070/11/5 1067/11/5 1066/11/5
f 1071/11/5 1067/11/5 1070/11/5
f 1074/6/5 1073/6/5 1072/6/5
f 1075/6/5 1073/6/5 1074/6/5
f 1076/12/5 1075/12/5 1074/12/5
f 1077/12/5 1075/12/5 1076/12/5
f 1082/12/5 1079/12/5 1078/12/5
f 1083/12/5 1079/12/5 1082/12/5
f 1085/12/5 1081/12/5 1080/12/5
f 1086/12/5 1081/12/5 1085/12/5
f 1090/12/5 1084/12/5 1083/12/5
f 1091/12/5 1084/12/5 1090/12/5
f 1092/12/5 1088/12/5 1087/12/5
f 1093/12/5 1088/12/5 1092/12/5
f 1095/12/5 1090/12/5 1089/12/5
f 1097/12/5 1094/12/5 1093/12/5
f 1098/12/5 1094/12/5 1097/12/5
f 1101/12/5 1096/12/5 1095/12/5
f 1101/12/5 1095/12/5 1089/12/5
f 1102/12/5 1096/12/5 1101/12/5
f 1104/12/5 1099/12/5 1098/12/5
f 1105/5/5 1100/5/5 1099/5/5
f 1105/12/5 1099/12/5 1104/12/5
f 1106/5/5 1100/5/5 1105/5/5
f 1107/12/5 1101/12/5 1089/12/5
f 1108/12/5 1103/12/5 1102/12/5
f 1109/12/5 1103/12/5 1108/12/5
f 1110/12/5 1106/12/5 1105/12/5
f 1111/12/5 1106/12/5 1110/12/5
f 1112/12/5 1101/12/5 1107/12/5
f 1113/12/5 1101/12/5 1112/12/5
f 1116/12/5 1115/12/5 1114/12/5
f 1117/12/5 1115/12/5 1116/12/5
f 1121/12/5 1119/12/5 1118/12/5
f 1122/12/5 1119/12/5 1121/12/5
f 1123/12/5 1121/12/5 1120/12/5
f 1124/12/5 1121/12/5 1123/12/5
f 1127/12/5 1126/12/5 1125/12/5
f 1128/12/5 1126/12/5 1127/12/5
f 1130/12/5 1129/12/5 1128/12/5
f 1131/12/5 1129/12/5 1130/12/5
f 1135/12/5 1132/12/5 1131/12/5
f 1136/12/5 1132/12/5 1135/12/5
f 1137/12/5 1134/12/5 1133/12/5
f 1138/12/5 1134/12/5 1137/12/5
f 1141/12/5 1140/12/5 1139/12/5
f 1142/12/5 1140/12/5 1141/12/5
f 1147/12/5 1144/12/5 1143/12/5
f 1148/12/5 1144/12/5 1147/12/5
f 1149/12/5 1146/12/5 1145/12/5
f 1150/12/5 1146/12/5 1149/12/5
f 1153/12/5 1152/12/5 1151/12/5
f 1154/12/5 1152/12/5 1153/12/5
f 1156/12/5 1155/12/5 1154/12/5
f 1157/12/5 1155/12/5 1156/12/5
f 1160/12/5 1159/12/5 1158/12/5
f 1161/12/5 1159/12/5 1160/12/5
f 1164/12/5 1163/12/5 1162/12/5
f 1165/12/5 1163/12/5 1164/12/5
f 1170/12/5 1167/12/5 1166/12/5
f 1171/12/5 1167/12/5 1170/12/5
f 1172/12/5 1169/12/5 1168/12/5
f 1173/12/5 1169/12/5 1172/12/5
f 1176/12/5 1175/12/5 1174/12/5
f 1177/12/5 1175/12/5 1176/12/5
f 1182/12/5 1179/12/5 1178/12/5
f 1183/12/5 1179/12/5 1182/12/5
f 1184/12/5 1181/12/5 1180/12/5
f 1185/12/5 1181/12/5 1184/12/5
f 1186/12/6 1187/12/6 1191/12/6
f 1191/12/6 1187/12/6 1192/12/6
f 1188/5/6 1189/5/6 1193/5/6
f 1189/4/6 1190/4/6 1194/4/6
f 1193/5/6 1189/5/6 1194/5/6
f 1194/4/6 1190/4/6 1195/4/6
f 1193/4/6 1194/4/6 1200/4/6
f 1200/4/6 1194/4/6 1201/4/6
f 1196/6/6 1197/6/6 1202/6/6
f 1202/6/6 1197/6/6 1203/6/6
f 1198/11/6 1199/11/6 1205/11/6
f 1205/11/6 1199/11/6 1206/11/6
f 1200/4/6 1201/4/6 1207/4/6
f 1203/11/6 1204/11/6 1208/11/6
f 1202/6/6 1203/6/6 1208/6/6
f 1208/11/6 1204/11/6 1209/11/6
f 1207/4/6 1201/4/6 1210/4/6
f 1210/4/6 1201/4/6 1211/4/6
f 1202/6/6 1208/6/6 1214/6/6
f 1210/5/6 1211/5/6 1215/5/6
f 1211/4/6 1212/4/6 1216/4/6
f 1215/5/6 1211/5/6 1216/5/6
f 1216/4/6 1212/4/6 1217/4/6
f 1213/6/6 1214/6/6 1218/6/6
f 1218/6/6 1214/6/6 1219/6/6
f 1214/6/6 1208/6/6 1220/6/6
f 1219/6/6 1214/6/6 1220/6/6
f 1221/3/6 1222/3/6 1223/3/6
f 1223/3/6 1222/3/6 1224/3/6
f 1225/5/6 1226/5/6 1228/5/6
f 1226/12/6 1227/12/6 1229/12/6
f 1228/5/6 1226/5/6 1229/5/6
f 1229/12/6 1227/12/6 1230/12/6
f 1231/11/6 1232/11/6 1235/11/6
f 1235/11/6 1232/11/6 1236/11/6
f 1233/11/6 1234/11/6 1237/11/6
f 1237/11/6 1234/11/6 1238/11/6
f 1239/3/6 1240/3/6 1241/3/6
f 1239/3/6 1241/3/6 1243/3/6
f 1241/3/6 1242/3/6 1243/3/6
f 1243/3/6 1242/3/6 1244/3/6
f 1244/3/6 1242/3/6 1245/3/6
f 1246/3/6 1247/3/6 1250/3/6
f 1245/3/6 1246/3/6 1250/3/6
f 1244/3/6 1245/3/6 1250/3/6
f 1250/3/6 1247/3/6 1251/3/6
f 1248/12/6 1249/12/6 1252/12/6
f 1252/12/6 1249/12/6 1253/12/6
f 1254/12/6 1255/12/6 1256/12/6
f 1256/12/6 1255/12/6 1257/12/6
f 1258/3/6 1259/3/6 1260/3/6
f 1260/3/6 1259/3/6 1261/3/6
f 1262/12/6 1263/12/6 1267/12/6
f 1267/12/6 1263/12/6 1268/12/6
f 1264/12/6 1265/12/6 1270/12/6
f 1270/12/6 1265/12/6 1271/12/6
f 1266/12/6 1267/12/6 1272/12/6
f 1272/12/6 1267/12/6 1273/12/6
f 1268/12/6 1269/12/6 1274/12/6
f 1274/12/6 1269/12/6 1275/12/6
f 1273/12/6 1274/12/6 1276/12/6
f 1276/12/6 1274/12/6 1277/12/6
f 1278/12/6 1279/12/6 1280/12/6
f 1280/12/6 1279/12/6 1281/12/6
f 1282/3/6 1283/3/6 1286/3/6
f 1286/3/6 1283/3/6 1287/3/6
f 1284/12/6 1285/12/6 1288/12/6
f 1288/12/6 1285/12/6 1289/12/6
f 1290/12/6 1291/12/6 1294/12/6
f 1294/12/6 1291/12/6 1295/12/6
f 1292/12/6 1293/12/6 1298/12/6
f 1298/12/6 1293/12/6 1299/12/6
f 1296/12/6 1297/12/6 1300/12/6
f 1300/12/6 1297/12/6 1301/12/6
f 1301/12/6 1302/12/6 1303/12/6
f 1303/12/6 1302/12/6 1304/12/6
f 1305/3/6 1306/3/6 1307/3/6
f 1307/3/6 1306/3/6 1308/3/6
f 1309/12/6 1310/12/6 1311/12/6
f 1311/12/6 1310/12/6 1312/12/6
f 1313/12/6 1314/12/6 1315/12/6
f 1315/12/6 1314/12/6 1316/12/6
f 1317/12/6 1318/12/6 1321/12/6
f 1321/12/6 1318/12/6 1322/12/6
f 1319/12/6 1320/12/6 1323/12/6
f 1323/12/6 1320/12/6 1324/12/6
f 1325/12/6 1326/12/6 1327/12/6
f 1327/12/6 1326/12/6 1328/12/6
f 1329/12/6 1330/12/6 1331/12/6
f 1331/12/6 1330/12/6 1332/12/6
f 1333/12/6 1334/12/6 1337/12/6
f 1337/12/6 1334/12/6 1338/12/6
f 1335/12/6 1336/12/6 1339/12/6
f 1339/12/6 1336/12/6 1340/12/6
f 1341/12/6 1342/12/6 1343/12/6
f 1343/12/6 1342/12/6 1344/12/6
f 1341/12/6 1343/12/6 1345/12/6
f 1345/12/6 1343/12/6 1346/12/6
f 1344/12/6 1342/12/6 1347/12/6
f 1347/12/6 1342/12/6 1348/12/6
f 1349/12/6 1350/12/6 1353/12/6
f 1351/12/6 1352/12/6 1354/12/6
f 1349/12/6 1353/12/6 1355/12/6
f 1353/12/6 1354/12/6 1355/12/6
f 1355/12/6 1354/12/6 1356/12/6
f 1356/12/6 1354/12/6 1357/12/6
f 1354/12/6 1352/12/6 1358/12/6
f 1357/12/6 1354/12/6 1358/12/6
f 1356/12/6 1357/12/6 1359/12/6
f 1359/12/6 1357/12/6 1360/12/6
f 1361/12/6 1362/12/6 1363/12/6
f 1363/12/6 1362/12/6 1364/12/6
f 1363/12/6 1364/12/6 1365/12/6
f 1365/12/6 1364/12/6 1366/12/6
f 1365/12/6 1366/12/6 1367/12/6
f 1367/12/6 1366/12/6 1368/12/6
f 1369/12/6 1370/12/6 1373/12/6
f 1373/12/6 1370/12/6 1374/12/6
f 1371/12/6 1372/12/6 1375/12/6
f 1375/12/6 1372/12/6 1376/12/6
f 1377/12/6 1378/12/6 1381/12/6
f 1381/12/6 1378/12/6 1382/12/6
f 1379/12/6 1380/12/6 1383/12/6
f 1383/12/6 1380/12/6 1384/12/6
